<svg width="782" height="831" viewBox="0 0 782 831" fill="none" xmlns="http://www.w3.org/2000/svg">
<g clip-path="url(#clip0_9780_155)">
<path d="M0.699951 374.7V469.9C0.699951 487.2 14.6 501.2 31.9 501.2H373.5C390.7 501.2 404.7 487.2 404.7 469.9V389.4L447.2 344.8L32 343.5C14.7 343.4 0.699951 357.4 0.699951 374.7Z" fill="#F5F5F5"/>
<path d="M354.3 401.2L44.3999 399.7V390.2L354.4 391.7L354.3 401.2Z" fill="#E0E0E0"/>
<path d="M354.3 432.5L44.3999 431.1V421.6L354.4 423L354.3 432.5Z" fill="#E0E0E0"/>
<path d="M354.3 463.1L231.7 462.5V452.9L354.4 453.5L354.3 463.1Z" fill="#E0E0E0"/>
<path d="M317.2 703.9V799.1C317.2 816.4 331.2 830.4 348.4 830.4H690C707.3 830.4 721.2 816.4 721.2 799.1V718.6L763.8 674L348.5 672.7C331.2 672.6 317.2 686.6 317.2 703.9Z" fill="#F5F5F5"/>
<path d="M672.4 727.9L362.4 726.5V716.9L672.4 718.4V727.9Z" fill="#E0E0E0"/>
<path d="M672.4 759.2L362.4 757.8V748.3L672.4 749.7V759.2Z" fill="#E0E0E0"/>
<path d="M672.4 789.8L549.7 789.2L549.8 779.7L672.4 780.3V789.8Z" fill="#E0E0E0"/>
<path d="M183.3 15.7998H384.7C394.7 15.7998 402.8 23.8998 402.8 33.7998V132.4C402.8 142.4 394.7 150.4 384.7 150.4H213.8C203.8 150.4 195.7 142.4 195.7 132.4V28.1998L183.3 15.7998Z" fill="#F5F5F5"/>
<path d="M300.1 111.6V174.8C300.1 186.2 290.8 195.5 279.4 195.5H52.7999C41.3999 195.5 32.0999 186.2 32.0999 174.8V121.4L3.8999 91.6999L279.3 90.8999C290.8 90.8999 300.1 100.1 300.1 111.6Z" fill="#E0E0E0"/>
<path d="M65.5 129.2L271.1 128.2V121.9L65.5 122.9V129.2Z" fill="#F5F5F5"/>
<path d="M65.5 150L271.1 149V142.7L65.5 143.6V150Z" fill="#F5F5F5"/>
<path d="M65.5 170.2L146.8 169.8V163.5L65.5 163.9V170.2Z" fill="#F5F5F5"/>
<path d="M729.3 404.6V467.8C729.3 479.2 720 488.5 708.6 488.5H482C470.6 488.5 461.3 479.2 461.3 467.8V414.4L433.1 384.8L708.5 383.9C720 383.9 729.3 393.2 729.3 404.6Z" fill="#E0E0E0"/>
<path d="M494.7 422.2L700.3 421.2V414.9L494.7 415.9V422.2Z" fill="#F5F5F5"/>
<path d="M494.7 443L700.3 442V435.7L494.7 436.7V443Z" fill="#F5F5F5"/>
<path d="M494.7 463.2L576.1 462.8L576 456.5L494.7 456.9V463.2Z" fill="#F5F5F5"/>
<path d="M487.5 794.5L256.5 793.4C228.7 793.3 206.3 770.7 206.4 742.9L208.8 163.7C209 135.9 231.6 113.5 259.4 113.6L490.4 114.7C518.2 114.8 540.6 137.5 540.5 165.2L538 744.4C537.9 772.2 515.3 794.6 487.5 794.5Z" fill="#18181B"/>
<path d="M490.1 134.7L445.3 134.5C439.3 134.5 434.4 139.5 434.4 145.8L434.3 153.9C434.3 160.2 429.4 165.3 423.4 165.2L336.1 164.8C330.1 164.8 325.3 159.7 325.3 153.4V145.3C325.3 139 320.5 133.9 314.5 133.9L298.7 133.8L259.5 133.6C240.1 133.5 224.2 149.3 224.1 168.7L221.7 734C221.7 753.4 237.4 769.3 256.8 769.4L487.4 770.4C506.8 770.5 522.7 754.8 522.8 735.4L525.1 170.1C525.2 150.6 509.5 134.8 490.1 134.7Z" fill="#FAFAFA"/>
<path d="M359.6 716.3C359.6 718.6 357.5 720.4 354.8 720.4C352.2 720.4 350.1 718.5 350.1 716.3C350.1 714 352.2 712.2 354.9 712.2C357.5 712.2 359.6 714.1 359.6 716.3Z" fill="#455A64"/>
<path d="M374.3 716.4C374.3 718.6 372.2 720.5 369.6 720.5C366.9 720.4 364.8 718.6 364.8 716.3C364.8 714.1 367 712.3 369.6 712.3C372.2 712.3 374.3 714.1 374.3 716.4Z" fill="#455A64"/>
<path d="M389.1 716.5C389.1 718.7 386.9 720.5 384.3 720.5C381.7 720.5 379.6 718.7 379.6 716.4C379.6 714.2 381.7 712.3 384.3 712.4C387 712.4 389.1 714.2 389.1 716.5Z" fill="#455A64"/>
<path d="M293 407.2C296.8 407.7 523.4 452.2 523.4 452.2V407.2H293Z" fill="#EBEBEB"/>
<path d="M221.7 692.8C221.7 692.8 468.3 657.9 466.1 659C464 660.1 221.7 659 221.7 659V692.8Z" fill="#EBEBEB"/>
<path d="M508 32.7998C508.3 32.7998 508.5 45.2998 508.5 60.5998C508.5 75.9998 508.3 88.4998 508 88.4998C507.7 88.4998 507.5 75.9998 507.5 60.5998C507.5 45.2998 507.7 32.7998 508 32.7998Z" fill="#18181B"/>
<path d="M606.7 96.9C606.8 97.1 595.5 102.4 581.4 108.6C567.3 114.8 555.8 119.6 555.7 119.3C555.6 119.1 566.9 113.8 581 107.6C595 101.4 606.5 96.6 606.7 96.9Z" fill="#18181B"/>
<path d="M604.2 -0.299805C604.2 -0.233138 604 0.133529 603.6 0.800195C603.2 1.53353 602.633 2.5002 601.9 3.7002C600.4 6.3002 598.2 10.0002 595.4 14.4002C589.8 23.4002 581.7 35.6002 572.6 49.0002C563.5 62.3002 555.3 74.4002 549.6 83.3002C546.8 87.6002 544.5 91.2002 542.8 93.8002C542 94.9335 541.367 95.9002 540.9 96.7002C540.433 97.3002 540.2 97.6002 540.2 97.6002C540.133 97.6002 540.3 97.2335 540.7 96.5002C541.167 95.7669 541.733 94.8002 542.4 93.6002C543.9 91.0002 546.2 87.4002 549 82.9002C554.6 73.9002 562.6 61.7002 571.7 48.4002C580.9 35.1002 589 22.9002 594.8 14.1002C597.6 9.7002 599.9 6.1002 601.6 3.5002C602.333 2.36686 602.967 1.43353 603.5 0.700195C603.9 0.0335286 604.133 -0.299805 604.2 -0.299805Z" fill="#18181B"/>
<path d="M742.5 235.2H291.6C281.8 235.2 273.9 243.1 273.9 252.8V392.7C273.9 402.4 281.8 410.3 291.6 410.3H325.2C327.9 424.9 331 443.3 331 443.3L361.4 410.3H742.5C752.2 410.3 760.1 402.4 760.1 392.7V252.8C760.1 243.1 752.2 235.2 742.5 235.2Z" fill="#FFCB00"/>
<path d="M556.4 311C556.4 311.3 502.8 311.6 436.6 311.6C370.4 311.6 316.7 311.3 316.7 311C316.7 310.8 370.4 310.5 436.6 310.5C502.8 310.5 556.4 310.8 556.4 311Z" fill="#F5F5F5"/>
<path d="M556.4 289.6C556.4 289.8 502.8 290.1 436.6 290.1C370.4 290.1 316.7 289.8 316.7 289.6C316.7 289.3 370.4 289 436.6 289C502.8 289 556.4 289.3 556.4 289.6Z" fill="#F5F5F5"/>
<path d="M556.4 332.3C556.4 332.6 502.8 332.8 436.6 332.8C370.4 332.8 316.7 332.6 316.7 332.3C316.7 332 370.4 331.8 436.6 331.8C502.8 331.8 556.4 332 556.4 332.3Z" fill="#F5F5F5"/>
<path d="M473.7 354.3C473.7 354.6 438.6 354.9 395.2 354.9C351.9 354.9 316.7 354.6 316.7 354.3C316.7 354 351.9 353.8 395.2 353.8C438.6 353.8 473.7 354 473.7 354.3Z" fill="#F5F5F5"/>
<path d="M538.7 486.6H84.1C77.3 486.6 71.8 492.2 71.8 499V646.9C71.8 653.8 77.3 659.3 84.1 659.3H414.3L444.4 691.9C444.4 691.9 447.5 673.6 450.2 659.3H538.7C545.5 659.3 551.1 653.8 551.1 646.9V499C551.1 492.2 545.5 486.6 538.7 486.6Z" fill="#455A64"/>
<path d="M520.9 562.9C520.9 563.2 467.2 563.5 401 563.5C334.8 563.5 281.2 563.2 281.2 562.9C281.2 562.6 334.8 562.4 401 562.4C467.2 562.4 520.9 562.6 520.9 562.9Z" fill="#F5F5F5"/>
<path d="M520.9 541.4C520.9 541.7 467.2 542 401 542C334.8 542 281.2 541.7 281.2 541.4C281.2 541.1 334.8 540.9 401 540.9C467.2 540.9 520.9 541.1 520.9 541.4Z" fill="#F5F5F5"/>
<path d="M520.9 584.2C520.9 584.5 467.2 584.7 401 584.7C334.8 584.7 281.2 584.5 281.2 584.2C281.2 583.9 334.8 583.7 401 583.7C467.2 583.7 520.9 583.9 520.9 584.2Z" fill="#F5F5F5"/>
<path d="M438.2 606.2C438.2 606.5 403.1 606.7 359.7 606.7C316.3 606.7 281.2 606.5 281.2 606.2C281.2 605.9 316.3 605.7 359.7 605.7C403.1 605.7 438.2 605.9 438.2 606.2Z" fill="#F5F5F5"/>
<path d="M629.1 175.9C629.4 172.2 626.1 167.1 623.1 164.2C620 161.3 618.1 157.3 619.7 151.5C620.9 146.9 623.8 147.3 625 144.6C625.8 142.6 625.4 140.4 625.6 138.2C626.2 130.9 634.3 125.1 641.5 126.9C643.5 119.9 650 114.5 657.2 113.7C664.5 113 672 117 675.4 123.4C679.5 121.3 684.7 121.3 688.8 123.6C692.9 125.9 695.7 130.2 696 134.9C700 132 706.2 133.1 709.4 136.9C712.6 140.7 712.8 146.6 710.4 150.9C707.9 155.2 703.3 158.1 698.3 158.8C693.4 159.6 688.4 158.4 683.9 156.2C679.5 154 675.6 150.7 672.1 147.2" fill="#18181B"/>
<path d="M748.4 321.1C748.4 367.8 709.6 405.7 661.8 405.7C614 405.7 575.2 367.8 575.2 321.1C575.2 274.4 614 236.6 661.8 236.6C709.6 236.6 748.4 274.4 748.4 321.1Z" fill="#E0E0E0"/>
<path d="M748.7 321.2L739.2 296.6L704.8 318.2L735.4 365.4C735.4 365.4 747.9 349.2 748.7 321.2Z" fill="#EB996E"/>
<path d="M653.9 268C666.3 268 676.4 258.4 677.1 246.2C677.6 236 678 226.2 678 226.2C678 226.2 696.9 224.9 698.6 206.4C700.4 187.9 700.6 145.2 700.6 145.2C679.8 134.3 654.6 135.4 634.8 148.1L633 149.2L630.8 244.8C630.7 257.6 641.1 268 653.9 268Z" fill="#FFBE9D"/>
<path d="M664.8 173.6C666.2 174.1 667 175.6 666.5 177C666 178.4 664.5 179.2 663.1 178.7C661.6 178.3 660.9 176.8 661.3 175.3C661.8 173.9 663.3 173.2 664.8 173.6Z" fill="#18181B"/>
<path d="M669.9 174.6C669.6 174.9 667.9 173.4 665.3 173.2C662.7 173 660.8 174.3 660.5 173.9C660.4 173.8 660.7 173.2 661.6 172.6C662.4 172.1 663.8 171.6 665.4 171.7C667 171.8 668.3 172.5 669.1 173.2C669.8 173.9 670.1 174.5 669.9 174.6Z" fill="#18181B"/>
<path d="M693 173.6C694.4 174.1 695.2 175.6 694.7 177C694.2 178.4 692.7 179.2 691.3 178.7C689.8 178.3 689.1 176.8 689.5 175.3C690 173.9 691.5 173.2 693 173.6Z" fill="#18181B"/>
<path d="M698.5 174.6C698.2 175 696.4 173.4 693.8 173.3C691.3 173.1 689.3 174.3 689.1 174C688.9 173.8 689.3 173.3 690.1 172.7C690.9 172.1 692.4 171.6 694 171.7C695.6 171.9 696.9 172.6 697.6 173.2C698.4 173.9 698.6 174.5 698.5 174.6Z" fill="#18181B"/>
<path d="M679.1 194.6C679.1 194.4 680.7 194.2 683.3 194.1C684 194.1 684.5 194 684.6 193.6C684.8 193.2 684.6 192.5 684.3 191.7C683.8 189.9 683.2 188.2 682.7 186.3C680.5 178.7 679 172.5 679.4 172.4C679.8 172.2 681.9 178.3 684.1 185.9C684.6 187.8 685.1 189.5 685.6 191.3C685.8 192.1 686.2 193 685.7 194.1C685.5 194.6 684.9 195 684.5 195.1C684 195.2 683.6 195.1 683.3 195.1C680.7 195 679.1 194.8 679.1 194.6Z" fill="#18181B"/>
<path d="M678 226C678 226 666.2 226 654.3 217.2C654.3 217.2 658.9 230.9 677.7 230.8L678 226Z" fill="#EB996E"/>
<path d="M632.5 176.4C632.6 174.9 631.4 173.6 629.9 173.5C626.4 173.3 620.7 174.6 620 184.1C618.9 197.7 632.2 194.6 632.3 194.2C632.3 193.9 632.5 181.7 632.5 176.4Z" fill="#FFBE9D"/>
<path d="M629.4 188.8C629.3 188.7 629.1 188.9 628.7 189.1C628.3 189.2 627.6 189.3 626.9 189C625.5 188.4 624.4 186 624.6 183.5C624.6 182.3 625 181.1 625.5 180.2C626 179.2 626.7 178.6 627.4 178.5C628.2 178.4 628.6 178.9 628.8 179.3C628.9 179.6 628.8 179.9 628.9 179.9C628.9 180 629.2 179.7 629.1 179.2C629.1 178.9 629 178.6 628.7 178.3C628.4 178 627.9 177.8 627.4 177.8C626.3 177.8 625.3 178.7 624.7 179.8C624.1 180.8 623.7 182.1 623.6 183.5C623.5 186.2 624.7 188.9 626.6 189.6C627.6 189.9 628.4 189.7 628.9 189.4C629.3 189.1 629.4 188.8 629.4 188.8Z" fill="#EB996E"/>
<path d="M657.8 167.3C658.4 168.2 660.8 167.8 663.9 167.7C666.9 167.4 669.3 167.6 669.9 166.6C670.5 165.6 667.6 163.3 663.6 163.7C659.7 163.8 657 166.4 657.8 167.3Z" fill="#18181B"/>
<path d="M687.7 166.4C688.1 167.6 690.3 168 692.8 168C695.3 167.9 697.6 167.5 697.9 166.3C698.3 165.1 696 163.5 692.8 163.5C689.6 163.6 687.3 165.3 687.7 166.4Z" fill="#18181B"/>
<path d="M703.2 151.1C703.2 151.1 692 156.5 677.4 149.2C667.9 144.4 656.7 142.1 654.3 144C651.8 145.9 651.3 155.8 641.8 158.7C641.8 158.7 642.4 177.5 634.9 176.8C627.4 176.2 632.1 147 632.1 147L650.5 138.1L670.5 134.3L689.4 136.9L704 140.9L703.2 151.1Z" fill="#18181B"/>
<path d="M577.6 260C597.2 239.8 631.8 242 631.8 242L660.4 262.5L676.6 243.6C676.6 243.6 693.7 245.5 709.6 253.8L710.7 254.1V254.4C723.3 261.2 741 277.5 758 293.4L737.7 312.2L715.3 332.1C715.3 332.1 715.4 332.3 715.3 332.5C715.1 333.7 718.4 361.1 721.9 381.9C701.5 401.4 675.4 409.7 646.5 404.7C637.3 403.1 632.9 400.8 624.4 398.6C611.9 395.3 602.8 384.4 601.6 371.5C600.1 354 598.9 332.5 598.9 332.5" fill="#455A64"/>
<path d="M694.5 247.1C694.6 247.1 695 248.2 695.8 250.3C696.5 252.4 697.5 255.5 698.7 259.2C701 266.8 704.1 277.3 706.9 289.1C709.7 300.9 711.9 311.6 713.2 319.4C713.9 323.3 714.4 326.5 714.7 328.7C715 330.9 715.1 332.1 715.1 332.1C715 332.1 714.7 330.9 714.3 328.8C713.8 326.4 713.2 323.3 712.5 319.6C711 311.8 708.7 301.1 705.9 289.3C703.1 277.6 700.2 267.1 698 259.5C696.9 255.8 696 252.7 695.4 250.4C694.8 248.3 694.5 247.1 694.5 247.1Z" fill="#18181B"/>
<path d="M713 319.2C712.8 319 721.3 311.7 732.1 303C742.8 294.2 751.7 287.3 751.8 287.5C752 287.8 743.5 295 732.7 303.8C722 312.5 713.2 319.4 713 319.2Z" fill="#18181B"/>
<path opacity="0.2" d="M603.5 287.6L586 345.4L592.5 348.8L598.9 332.5C598.9 332.5 605.5 298.1 603.5 287.6Z" fill="black"/>
<g opacity="0.2">
<path d="M692.6 247.1C702.1 252.1 678.4 264.1 667.7 263.8L675.5 243.3C675.5 243.3 689.5 245.5 692.6 247.1Z" fill="black"/>
</g>
<path d="M628.9 243.3V228C628.9 228 658.8 235.7 659.9 253.5C659.9 253.5 663.7 233.8 679.1 232.8L681.3 260.6L663.3 276.2H645.2L630.8 263.8L628.9 244.5" fill="#455A64"/>
<path d="M666.6 339.3C666.5 339.3 666.5 338.1 666.6 336C666.6 333.9 666.6 330.8 666.7 327C666.7 319.5 666.4 309 665.5 297.6C664.5 286.1 663 275.7 661.8 268.3C661.1 264.7 660.6 261.8 660.2 259.5C659.8 257.4 659.6 256.3 659.7 256.2C659.8 256.2 660.1 257.4 660.6 259.4C661.1 261.5 661.8 264.5 662.5 268.2C664 275.6 665.6 286 666.5 297.5C667.5 309 667.6 319.5 667.4 327C667.3 330.8 667.1 333.9 667 336C666.8 338.1 666.7 339.3 666.6 339.3Z" fill="#18181B"/>
<path d="M658.5 248.4C658.5 248.5 657.8 248.1 656.7 248.6C655.6 248.9 654.6 250.4 653.7 252.4C651.9 256.4 649.6 262.1 648.1 268.9L647.9 269.6L647.3 269.2C645.5 268.133 643.667 266.967 641.8 265.7C638.3 263.3 635 260.8 632.2 258.4C630.7 257.1 629.5 255.6 628.9 254.1C628.2 252.5 627.9 250.9 627.9 249.4C627.7 246.6 628.2 244.3 628.5 242.8C628.9 241.2 629.1 240.4 629.2 240.4C629.2 240.4 629.1 241.3 628.9 242.8C628.7 244.4 628.4 246.6 628.6 249.4C628.7 250.8 629 252.3 629.7 253.7C630.3 255.2 631.4 256.5 632.8 257.7C635.6 260 638.9 262.5 642.4 264.9C644.267 266.1 646.067 267.267 647.8 268.4L647.1 268.7C648.7 261.8 651.1 256 653.2 252.1C653.6 251.1 654.1 250.2 654.7 249.5C655.3 248.8 656 248.4 656.6 248.2C657.9 247.9 658.6 248.4 658.5 248.4Z" fill="#18181B"/>
<path d="M679.1 232.8C679.2 232.8 679.2 233.7 679.4 235.2C679.533 237 679.667 239.166 679.8 241.7C680.1 244.5 680.4 247.7 681 251.3C681.2 253.1 681.8 255 681.3 257.2C680.7 259.3 679.1 260.9 677.4 262.2C675 264 672.5 265.3 670.8 267.2L670 268.1L669.9 266.9C669.5 260.6 667.4 255.4 665.5 252C663.6 248.6 662.1 246.9 662.2 246.8C662.2 246.7 662.7 247.1 663.4 247.9C664.1 248.8 665 250 666.1 251.7C668.1 255 670.4 260.3 670.9 266.8L670.1 266.5C671.9 264.5 674.5 263.1 676.8 261.4C678.4 260.2 679.8 258.7 680.3 256.9C680.7 255.2 680.2 253.3 680 251.5C679.5 247.8 679.2 244.5 679.1 241.8C679 239 678.9 236.8 679 235.2C679 233.7 679 232.8 679.1 232.8Z" fill="#18181B"/>
<path d="M775.2 236.7C774 238.1 730 296.9 730 296.9L736.2 300.4L781.3 242.4L775.2 236.7Z" fill="#18181B"/>
<path d="M598.6 283.2C598.6 283.2 644.8 349.8 647.6 351.1C653.1 353.6 716.4 299 722.4 293.7C723.3 292.6 725 290.3 728.3 285.6C728.3 285.6 733.3 262.8 738.7 264.5C744 266.3 735.7 276.1 739.2 284.8C742.7 293.5 758.6 272.8 759.2 270.9L763.3 265.6C763.3 265.6 767.6 277.7 767.3 282.8C766.4 299.1 751 318.5 751 318.5C751 318.5 681.7 404.3 634.3 407C620.6 407.7 596.3 369 580.1 339.9C570.3 322.3 575.2 300.2 591.4 288.4L598.6 283.2Z" fill="#FFBE9D"/>
<path d="M759.5 285.7C759.4 285.6 760.9 283 762.5 279.7C764.1 276.4 765.3 273.6 765.5 273.7C765.7 273.7 764.7 276.6 763.1 280C761.4 283.3 759.7 285.8 759.5 285.7Z" fill="#EB996E"/>
<path d="M590.7 250.7C590.7 250.7 541.1 268.3 578 351.8L635.3 317.2L627.2 297.7L590.7 250.7Z" fill="#455A64"/>
<path d="M586.9 252.1C586.9 252.1 589.1 251.8 592.9 252.6C594.8 253.1 597.1 253.9 599.4 255.4C601.8 256.8 604.3 258.8 606.7 261.3C611.5 266.3 616 273.3 620.1 281.4C624.3 289.6 628.3 298.8 632.3 308.5C633.5 311.4 634.7 314.3 635.8 317L636 317.5L635.6 317.7C619 326.7 604.5 335.2 594.3 341.5C589.2 344.7 585.2 347.3 582.4 349.1C581.067 349.967 580 350.667 579.2 351.2C578.4 351.667 578 351.867 578 351.8C578 351.8 578.333 351.533 579 351C579.7 350.5 580.8 349.7 582.2 348.8C584.9 346.9 588.9 344.2 594 340.9C604.1 334.4 618.5 325.8 635.1 316.8L634.8 317.4C633.7 314.7 632.5 311.8 631.3 308.9C627.3 299.2 623.4 290 619.3 281.9C615.2 273.8 610.8 266.8 606.1 261.8C603.8 259.3 601.4 257.3 599.1 255.9C596.8 254.4 594.6 253.5 592.8 253C589.1 252 586.9 252.3 586.9 252.1Z" fill="#18181B"/>
<path d="M693.7 128.3C693.767 128.3 693.867 128.6 694 129.2C694.1 129.8 694.2 130.7 694.1 131.8C694 134 693.2 137.4 690.3 140.4C687.6 143.5 682.3 145.3 677 143.8C674.4 143.1 671.7 141.5 670.1 138.9C669.4 137.6 668.9 136 669.1 134.3C669.3 132.8 670.1 131.2 671.6 130.2C673 129.2 674.9 129.3 676.4 129.9C677.9 130.5 679.1 131.7 679.7 133.2C680.8 136.1 680 139.3 678.3 141.5C674.9 146.1 668.7 146.4 665.2 144.4C663.4 143.5 661.8 142.7 660.3 142.5C658.8 142.2 657.4 142.4 656.5 142.9C654.5 143.8 653.7 144.9 653.6 144.8C653.6 144.733 653.8 144.5 654.2 144.1C654.4 143.8 654.7 143.6 655 143.3C655.4 143.1 655.8 142.7 656.3 142.5C657.3 142 658.8 141.6 660.4 141.9C662 142.1 663.7 142.9 665.5 143.7C666.4 144.1 667.4 144.5 668.4 144.6C669.4 144.8 670.5 144.8 671.6 144.6C673.8 144.2 676.1 143 677.6 141C679 139 679.7 136.1 678.7 133.6C677.8 131.2 674.5 129.6 672.1 131.1C671 131.8 670.3 133.1 670.1 134.5C670 135.8 670.3 137.2 671 138.3C672.4 140.7 674.8 142.2 677.3 142.9C682.2 144.4 687.2 142.7 689.8 139.9C692.6 137.2 693.5 133.9 693.7 131.8C694 129.6 693.6 128.3 693.7 128.3Z" fill="#455A64"/>
<path d="M682.9 203.7C683 203.9 682.3 204.1 681.2 204.2C680.1 204.2 678.6 204 677.1 203.2C675.6 202.5 674.4 201.4 673.8 200.5C673.2 199.5 673 198.9 673.2 198.8C673.4 198.7 674.8 200.9 677.5 202.3C680.3 203.7 682.9 203.4 682.9 203.7Z" fill="#18181B"/>
<path d="M630.5 194.9C630.6 194.8 631.1 195.8 630.4 197.2C630.1 197.8 629.4 198.5 628.4 198.8C627.3 199.1 626.1 198.7 625.3 198C624.4 197.2 623.9 196.1 623.9 195.1C624 194 624.4 193.2 624.9 192.7C625.8 191.5 626.8 191.4 626.8 191.5C626.9 191.7 626.1 192 625.5 193.1C624.8 194.1 624.5 196 625.9 197.2C626.6 197.7 627.5 198 628.1 197.8C628.9 197.7 629.4 197.2 629.8 196.8C630.5 195.8 630.3 194.9 630.5 194.9Z" fill="#18181B"/>
<path d="M697 135.1C697.1 135 697.9 136.3 698 138.7C698.1 141.1 697.5 144.6 695 147.4C692.6 150.2 689.2 151.4 686.9 151.6C684.5 151.8 683.1 151.2 683.1 151.1C683.1 150.9 684.6 151.2 686.8 150.8C689 150.5 692 149.3 694.2 146.7C696.5 144.1 697.2 141 697.3 138.7C697.3 136.5 696.9 135.1 697 135.1Z" fill="#455A64"/>
<path d="M629.4 302.4C629.5 302.7 616.3 309.4 599.9 317.5C583.5 325.6 570.2 332 570 331.8C569.9 331.5 583.1 324.7 599.5 316.6C615.9 308.5 629.3 302.1 629.4 302.4Z" fill="#E0E0E0"/>
<path d="M617.4 279.7C617.5 280 605.8 286.5 591.2 294.4C576.5 302.2 564.6 308.4 564.5 308.1C564.3 307.9 576.1 301.3 590.7 293.5C605.3 285.6 617.2 279.5 617.4 279.7Z" fill="#E0E0E0"/>
<path d="M605.8 261.4C605.8 261.5 603.6 262.8 599.9 264.8C596 267 591 269.8 585.5 272.9C580.1 276 575.2 278.8 571.3 281C567.6 283.1 565.3 284.4 565.2 284.2C565.2 284.1 567.3 282.6 570.9 280.4C574.4 278.1 579.4 275.1 585 271.9C590.6 268.8 595.8 266.1 599.6 264.2C603.3 262.3 605.7 261.2 605.8 261.4Z" fill="#E0E0E0"/>
<path d="M649.7 257C649.7 257.2 648.1 257 645.8 256C643.5 255.1 640.6 253.3 637.7 250.7C634.9 248.2 632.7 245.6 631.2 243.7C629.7 241.7 628.9 240.5 629 240.4C629.1 240.3 630.1 241.4 631.8 243.2C633.4 245 635.7 247.5 638.4 250C641.2 252.4 644 254.2 646.1 255.3C648.3 256.4 649.7 256.9 649.7 257Z" fill="#E0E0E0"/>
<path d="M678.9 246.2C679.1 246.3 677.9 249.5 674.7 252.2C671.5 254.9 668.1 255.5 668.1 255.3C668 255 671.1 253.9 674 251.4C677 248.9 678.6 246.1 678.9 246.2Z" fill="#E0E0E0"/>
<path d="M730.9 276.3C730.9 276.367 730.533 276.433 729.8 276.5C728.933 276.633 727.833 276.767 726.5 276.9C723.7 277.2 719.7 277.6 714.7 278C704.6 278.8 690.8 279.6 675.4 280.1C660.1 280.7 646.2 280.9 636.1 280.8C631.1 280.8 627 280.7 624.2 280.6C622.867 280.533 621.8 280.467 621 280.4C620.2 280.333 619.8 280.3 619.8 280.3C619.8 280.233 620.2 280.2 621 280.2C621.8 280.2 622.867 280.2 624.2 280.2C627.2 280.1 631.2 280.1 636.1 280.1C646.2 280 660 279.6 675.4 279.1C690.7 278.5 704.6 277.9 714.6 277.3C719.5 276.9 723.6 276.7 726.5 276.5C727.833 276.433 728.9 276.367 729.7 276.3C730.5 276.233 730.9 276.233 730.9 276.3Z" fill="#E0E0E0"/>
<path d="M715.1 300C715.1 300.1 713.9 300.3 711.8 300.5C709.7 300.8 706.6 301.1 702.8 301.5C695.2 302.2 684.6 302.9 673 303.4C661.3 303.8 650.7 304 643.1 303.9C639.2 303.8 636.1 303.8 634 303.7C631.9 303.6 630.7 303.5 630.7 303.4C630.7 303.4 631.9 303.3 634 303.3C636.3 303.2 639.4 303.2 643.1 303.1C650.7 303 661.3 302.8 672.9 302.3C684.6 301.9 695.1 301.3 702.7 300.7C706.4 300.5 709.4 300.3 711.8 300.1C713.9 300 715.1 299.9 715.1 300Z" fill="#E0E0E0"/>
<path d="M679.2 329.3C679.2 329.4 676.7 329.8 672.6 330.2C668.5 330.6 662.8 331.1 656.5 331.4C650.2 331.7 644.5 331.8 640.4 331.8C636.2 331.8 633.7 331.7 633.7 331.5C633.7 331.4 636.2 331.2 640.3 331.1C644.8 330.9 650.3 330.6 656.4 330.4C662.6 330 668.1 329.7 672.5 329.5C676.7 329.2 679.2 329.1 679.2 329.3Z" fill="#E0E0E0"/>
<path d="M633.4 259.9C633.4 260.2 627.3 260.2 619.7 260.5C612.2 260.8 606 261.3 606 261C606 260.7 612.1 259.8 619.7 259.5C627.3 259.2 633.4 259.6 633.4 259.9Z" fill="#E0E0E0"/>
<path d="M717.8 258.8C717.8 259.1 709.8 259.3 700 259.2C690.2 259.2 682.2 258.9 682.2 258.6C682.2 258.4 690.2 258.1 700 258.2C709.8 258.2 717.8 258.5 717.8 258.8Z" fill="#E0E0E0"/>
<path d="M720.8 380.5C720.9 380.5 720.2 380.9 719 381.5C717.8 382.1 716 383 713.8 383.9C709.4 385.8 703 388 695.9 389.6C688.7 391.3 682 392.1 677.2 392.3C674.8 392.5 672.8 392.5 671.5 392.5C670.1 392.5 669.4 392.4 669.4 392.3C669.4 392.2 672.3 392.1 677.1 391.6C681.9 391.1 688.5 390.3 695.6 388.6C702.7 387 709.1 384.9 713.5 383.2C718 381.5 720.8 380.3 720.8 380.5Z" fill="#E0E0E0"/>
<path d="M94 570.1C94 615.7 132.8 652.7 180.6 652.7C228.4 652.7 267.2 615.7 267.2 570.1C267.2 524.5 228.4 487.5 180.6 487.5C132.8 487.5 94 524.5 94 570.1Z" fill="#E0E0E0"/>
<path d="M162.9 371C149.2 371.7 143.8 386 142.2 389.2C140.5 392.4 140.3 396.1 140 399.7C139.7 403.3 139.2 407 137.3 410C134.3 414.8 128 417.3 126.2 422.8C124.3 428.9 129.3 435.5 128 441.8C127.2 445.1 124.8 447.9 123.9 451.3C123 454.8 123.9 458.5 125.8 461.6C130.3 469.4 139.6 473.3 148.6 473.6C157.5 473.9 166.3 471.2 174.9 468.6" fill="#18181B"/>
<path d="M223.4 388.8C222 391.7 223.3 395.2 225.4 397.6C227.5 400 230.4 401.7 232.9 403.7C235.4 405.7 237.6 408.3 237.9 411.5C238.2 414.4 236.7 417.4 237.1 420.3C238.2 427.8 250.1 430 250.7 437.5C251.2 442.5 246 447.2 247.4 452C248 453.8 249.4 455.3 250.4 456.9C253.8 462.5 251.5 470.3 246.6 474.7C241.7 479 234.9 480.6 228.3 480.9C222.8 481.1 216.5 480.2 213.3 475.7C210.3 471.6 210.9 466.1 211.5 461.1C214.3 437.6 213.8 413.9 213.3 390.3" fill="#18181B"/>
<path d="M166.6 497.2C166.7 484.9 166.5 471.9 166.5 471.9C166.5 471.9 150.7 469.1 147.7 448.4C144.8 428.6 149.7 386.1 149.7 386.1C172.6 377 198.5 380.5 214.5 399L212 499C211.7 510.6 201.5 519.6 189.1 519.2C176.5 518.8 166.5 509 166.6 497.2Z" fill="#FFBE9D"/>
<path d="M154 418.7C153.9 420.2 155.1 421.4 156.5 421.5C158 421.6 159.2 420.5 159.3 419.1C159.4 417.7 158.2 416.5 156.8 416.4C155.3 416.3 154.1 417.3 154 418.7Z" fill="#18181B"/>
<path d="M149.7 416.7C150.1 417 152.1 415.6 154.9 415.6C160.3 416.4 160.2 417.2 160.2 416.8C160.3 416.6 160 416 159.1 415.3C158.2 414.6 156.7 414 154.9 414C153.1 414 151.6 414.6 150.8 415.3C149.9 415.9 149.6 416.5 149.7 416.7Z" fill="#18181B"/>
<path d="M183.2 419.6C183.2 421 184.3 422.2 185.8 422.3C187.2 422.4 188.5 421.3 188.5 419.9C188.6 418.5 187.5 417.3 186 417.2C184.5 417.1 183.3 418.2 183.2 419.6Z" fill="#18181B"/>
<path d="M179.5 417.7C179.8 418 181.9 416.6 184.7 416.6C187.6 416.6 189.7 418.1 190 417.8C190.1 417.6 189.8 417 188.9 416.3C188 415.6 186.5 415 184.7 415C182.9 414.9 181.4 415.6 180.5 416.2C179.7 416.9 179.4 417.5 179.5 417.7Z" fill="#18181B"/>
<path d="M168.9 438.2C168.9 438 167.2 437.7 164.3 437.3C163.6 437.2 162.9 437 162.7 436.5C162.6 436 162.9 435.2 163.3 434.4C163.967 432.667 164.7 430.833 165.5 428.9C168.6 421 170.8 414.5 170.5 414.4C170.2 414.3 167.4 420.6 164.3 428.4C163.567 430.333 162.867 432.2 162.2 434C161.9 434.8 161.4 435.7 161.8 436.8C162 437.4 162.5 437.8 163 437.9C163.4 438.1 163.8 438.1 164.2 438.1C167.1 438.3 168.9 438.3 168.9 438.2Z" fill="#18181B"/>
<path d="M166.5 471.9C166.5 471.9 180.5 473 194.3 464.9C194.3 464.9 187.5 479 166.8 476.8L166.5 471.9Z" fill="#EB996E"/>
<path d="M170 445.1C171.1 443.7 172.9 443 174.7 443.2C175.9 443.4 177.2 444 177.9 445C178.6 446 178.8 447.4 178.1 448.4C177.3 449.5 175.7 449.7 174.3 449.3C173 448.9 171.8 448 170.7 447.1C170.4 446.8 170.1 446.6 169.9 446.2C169.7 445.9 169.7 445.4 169.9 445.2" fill="#EB996E"/>
<path d="M177.3 440.2C176.8 440.2 176.8 443.3 174.1 445.5C171.4 447.7 168.1 447.3 168.1 447.7C168.1 447.9 168.8 448.3 170.2 448.4C171.6 448.4 173.6 448 175.2 446.7C176.9 445.4 177.6 443.6 177.7 442.3C177.8 441 177.5 440.2 177.3 440.2Z" fill="#18181B"/>
<path d="M205.5 384.2C198 395 177.9 406.1 163.6 408.7C165.2 406.5 174 401.1 175.7 398.9C169.2 403.7 159.9 410.2 151.3 410.7C150.2 410.7 149.1 410.7 148.3 410.2C147.2 409.5 146.9 408.2 146.8 407C146.2 401.9 146.6 393.2 147.4 388.2C148.2 383.2 150.5 378.2 154.9 374.8C160.4 370.5 168.3 369.5 175.8 369.3C182 369.2 188.5 369.5 194.2 371.8C199.9 374 204.8 378.5 205.6 383.9" fill="#18181B"/>
<path d="M227.2 432.6C228.3 427.3 229.1 422.2 229.3 418.8C229.9 408.1 226.8 368.7 190 371.9L188.5 383.1C188.5 383.1 182.8 421.5 206.7 421.7C206.7 421.7 208 433.2 218.8 444.3C218.8 444.3 225 444.1 227.2 432.6Z" fill="#18181B"/>
<path d="M206.7 421.7C208.9 421.3 211.2 421.4 213.3 422.2C215.4 423.1 217.2 424.7 218.1 426.7C219 428.8 218.9 431.2 218.1 433.3C217.3 435.5 215.9 437.3 214.3 438.9C213.1 440 211.8 441 210.2 441.5C208.7 442 206.9 441.8 205.6 440.7" fill="#FFBE9D"/>
<path d="M207.7 435.2C207.5 435.3 208.4 436.6 210.4 436.1C211.4 435.8 212.4 435 213 433.9C213.6 432.8 214 431.7 214.1 430.3C214.3 428.9 214 427.4 213.2 426.4C212.5 425.3 211.3 424.6 210.3 424.6C208.3 424.5 207.6 426 207.8 426C208 426.2 208.8 425.5 210.2 425.8C211.5 426.1 212.7 427.9 212.4 430.1C212.2 432.4 211.3 434.5 210 435C208.8 435.6 207.9 435 207.7 435.2Z" fill="#EB996E"/>
<path d="M210.7 380.2C213.5 381.8 216.9 382.3 220.1 381.4C223.2 380.6 226 378.5 227.7 375.7C228.7 373.9 229.4 371.7 228.8 369.7C228.1 366.9 225.4 365.1 222.6 364.4C218.6 363.3 214.1 364.3 211 367.1C208 370 206.7 374.6 208 378.5C209.4 382.5 213.4 385.4 217.6 385.1" fill="#18181B"/>
<path d="M214 439.9C212 441.4 209.9 442.9 208.3 444.8C206.7 446.8 205.6 449.3 205.8 451.8C206 453.2 206.5 454.6 206.3 456C206 457.9 204.4 459.3 203.4 461C200.7 465.2 201.9 471.2 205.3 474.9C208.7 478.6 213.8 480.2 218.9 480.4C221.8 480.5 224.8 480.1 227.2 478.4C230.7 476 232 471.5 232.1 467.3" fill="#18181B"/>
<path d="M216.5 388.5C216.6 388.5 215.9 390 214.4 392.2C212.8 394.4 210.4 397.3 207.3 400C204.1 402.7 200.9 404.6 198.5 405.8C196.1 407 194.5 407.5 194.5 407.4C194.3 407.1 200.5 404.5 206.6 399.2C212.8 393.9 216.3 388.3 216.5 388.5Z" fill="#455A64"/>
<path d="M220.3 388.2C220.5 388.3 220.4 390.2 219.7 393.3C219 396.4 217.5 400.5 215 404.7C212.5 408.8 209.5 412.1 207.1 414.1C204.7 416.2 203.1 417.2 203 417.1C202.7 416.8 209.2 412.3 214.1 404.1C219.1 396 220 388.2 220.3 388.2Z" fill="#455A64"/>
<path d="M140.4 404.9C140.7 404.9 141.1 408.4 142.3 412.5C143.5 416.5 145 419.7 144.7 419.8C144.5 420 142.5 417 141.3 412.7C140.1 408.5 140.1 404.9 140.4 404.9Z" fill="#455A64"/>
<path d="M228.6 475.7C228.7 475.5 229.5 476.6 231.7 476.7C232.7 476.7 234 476.4 235.2 475.5C236.4 474.7 237.4 473.3 237.8 471.5C238.3 469.7 238.3 467.6 237.9 465.5C237.5 463.3 236.6 461.1 235.9 458.6C235.1 456.2 234.5 453.4 235 450.5C235.4 447.6 237.3 445.2 238.3 442.6C239.2 440 238.8 437.1 237.7 434.7C236.5 432.3 234.5 430.6 232.2 429.7C231 429.2 229.9 428.8 228.8 428.2C227.7 427.6 226.6 426.8 226 425.8C224.7 423.6 224.8 421.4 224.8 419.5C224.8 417.5 224.9 415.8 224.6 414.4C224.3 412.9 223.7 411.7 223.1 410.9C221.7 409.3 220.3 409.4 220.4 409.3C220.4 409.2 220.7 409.2 221.3 409.3C221.8 409.5 222.6 409.8 223.4 410.7C224.1 411.5 224.8 412.7 225.2 414.2C225.6 415.8 225.5 417.6 225.5 419.5C225.6 421.3 225.6 423.5 226.8 425.3C227.9 427.1 230.2 427.9 232.6 428.8C235 429.7 237.3 431.7 238.6 434.3C239.9 436.8 240.3 440 239.3 443C238.2 445.8 236.4 448.1 236 450.7C235.5 453.3 236.1 455.9 236.8 458.3C237.5 460.7 238.3 463 238.7 465.3C239.2 467.6 239.1 469.8 238.6 471.7C238 473.6 236.9 475.2 235.5 476C234.1 476.9 232.7 477.1 231.6 477.1C230.5 477 229.7 476.6 229.2 476.3C228.8 475.9 228.6 475.7 228.6 475.7Z" fill="#455A64"/>
<path d="M214.2 474.3C214.3 474.2 214.4 474.9 215.4 475.4C216.3 475.8 218.2 475.8 219.3 474.3C220.4 472.8 220.2 470.2 219 468C217.8 465.8 215.6 463.6 215 460.3C214.7 458.7 215.1 456.8 216.1 455.6C217.1 454.4 218.2 453.6 219 452.6C220.5 450.7 220.6 448.2 220.4 446.3C220.1 444.3 219.5 442.8 219.2 441.7C218.9 440.7 218.7 440.1 218.7 440C218.8 440 219.1 440.6 219.6 441.6C220 442.6 220.7 444.1 221.1 446.2C221.4 448.1 221.4 450.9 219.7 453.2C218.9 454.4 217.7 455.2 216.9 456.3C216 457.3 215.8 458.7 216 460.1C216.5 463 218.6 465.1 219.8 467.6C221.1 470 221.3 472.9 219.9 474.7C219.2 475.7 218.2 476 217.3 476.1C216.5 476.2 215.7 476 215.2 475.7C214.1 475.1 214.1 474.2 214.2 474.3Z" fill="#455A64"/>
<path d="M135.8 469C135.7 469.1 135.1 468.5 134.1 467.4C133.2 466.3 131.7 464.7 130.7 462.2C130.1 460.9 129.8 459.4 129.8 457.8C129.9 456.2 130.3 454.4 131.6 452.9C132.8 451.5 134.6 450.8 135.7 449.4C136.8 448.1 137 446.1 136.5 444.3C136.1 442.4 135.2 440.7 134.3 439C133.5 437.3 132.7 435.6 132.4 433.7C132.1 431.9 132.5 430 133.4 428.7C134.3 427.3 135.5 426.4 136.5 425.5C138.5 423.9 139.6 422.1 139.9 420.6C140.2 419.2 139.7 418.5 139.8 418.4C139.8 418.4 140 418.6 140.1 419C140.2 419.3 140.4 419.9 140.3 420.7C140.1 422.3 139 424.3 137 426.1C136 427 134.9 427.9 134.1 429.2C133.3 430.4 133 432 133.3 433.6C133.6 435.2 134.4 436.9 135.2 438.5C136.1 440.2 137.1 442 137.5 444C138 446 137.9 448.4 136.5 450.1C135.1 451.7 133.3 452.4 132.3 453.6C131.2 454.8 130.7 456.4 130.7 457.8C130.6 459.3 130.9 460.7 131.3 461.9C132.3 464.3 133.6 466 134.5 467.2C135.3 468.3 135.8 469 135.8 469Z" fill="#455A64"/>
<path d="M219.2 382.8C218.9 382.9 217.5 379.9 214.3 377.5C211.1 375.1 207.8 374.6 207.9 374.3C207.8 374 211.5 374.1 214.9 376.7C218.4 379.3 219.4 382.8 219.2 382.8Z" fill="#FFCB00"/>
<path d="M222.1 363.7C222.2 363.6 222.8 364.4 223.4 365.9C223.9 367.5 224.2 369.8 223.6 372.3C222.9 374.7 221.4 376.6 220.2 377.6C218.9 378.7 217.9 379 217.9 378.9C217.8 378.8 218.6 378.2 219.6 377.1C220.7 376 221.9 374.2 222.6 372C223.2 369.8 223 367.6 222.7 366.1C222.3 364.6 221.9 363.7 222.1 363.7Z" fill="#455A64"/>
<path opacity="0.3" d="M120.5 609.7C120.5 609.7 170.2 656.9 199.7 648.3C229.3 639.8 238 617.6 238 617.6L238.7 609.7L235.8 607.7L122.1 598.5L120.5 609.7Z" fill="black"/>
<path d="M91.1001 565.5L100.7 540.9L135 562.5L104.4 609.7C104.4 609.7 92.0001 593.5 91.1001 565.5Z" fill="#EB996E"/>
<path d="M129.9 497.6C145.8 489.2 166.5 486.8 166.5 486.8C172.6 498.9 191.5 500.4 202.9 492.2L212.6 485.6C212.6 485.6 214.1 485.6 216.7 485.8C239.3 487.8 257.8 504.7 262.4 526.9C264.1 535 265.3 544.3 264.8 552.9C263.5 574.8 240.9 576.7 240.9 576.7C240.9 576.7 239.8 598.3 238.2 615.8C237.1 628.8 230.3 638.5 218.4 644C209.6 648.1 204.7 649.9 193.2 651.8C164.2 656.4 136.4 645.4 118 625.7C121.5 604.9 124.8 578 124.5 576.8C124.5 576.5 124.6 576.4 124.6 576.4L102.1 556.5L89.3999 545.8C89.3999 545.8 117.3 504.4 129.9 497.6Z" fill="#FFCB00"/>
<path d="M157.7 511.1C157.6 511.3 155.7 509.5 152.1 509.5C150.4 509.5 148.2 510 146.4 511.5C145.5 512.2 144.7 513.2 143.8 514.2C143 515.2 141.8 516.4 140.2 516.6C138.6 517 137.1 516.2 136 515.5C134.8 514.8 133.9 514 132.8 513.4C130.9 512.2 128.6 512.3 127 512.9C125.3 513.5 124.2 514.5 123.6 515.2C122.9 516 122.7 516.5 122.6 516.5C122.6 516.5 122.7 515.9 123.2 515C123.8 514.1 124.9 512.9 126.7 512.2C128.5 511.5 131 511.2 133.3 512.6C134.4 513.2 135.4 514 136.5 514.7C137.6 515.3 138.8 515.9 140 515.6C141.2 515.4 142.2 514.5 143.1 513.6C144 512.6 144.8 511.6 145.8 510.8C147.8 509.2 150.2 508.7 152.1 508.8C154 508.9 155.5 509.5 156.4 510C157.3 510.6 157.7 511 157.7 511.1Z" fill="#FAFAFA"/>
<path d="M180.4 540.9C180.3 541.1 179.1 538.8 175.7 537.7C174 537.1 171.8 536.9 169.6 537.7C168.6 538.1 167.5 538.9 166.3 539.5C165.2 540.2 163.8 540.9 162.1 540.6C160.5 540.4 159.3 539.3 158.5 538.2C157.6 537.2 157 536.1 156.2 535.2C154.7 533.4 152.5 532.8 150.8 532.8C149 532.9 147.7 533.5 146.8 534C146 534.5 145.6 534.9 145.5 534.9C145.5 534.9 145.8 534.3 146.6 533.6C147.4 533 148.8 532.2 150.8 532.1C152.6 532 155.2 532.6 156.9 534.6C157.8 535.5 158.5 536.6 159.3 537.6C160.1 538.6 161.1 539.4 162.3 539.6C163.5 539.8 164.7 539.3 165.8 538.6C167 538 168.1 537.3 169.3 536.8C171.8 536 174.2 536.3 175.9 537C177.7 537.7 178.9 538.7 179.6 539.5C180.3 540.3 180.5 540.9 180.4 540.9Z" fill="#FAFAFA"/>
<path d="M231.1 497.2C231 497.4 228.9 496.1 225.3 496.9C223.6 497.2 221.6 498.2 220.1 500C219.4 500.9 218.9 502.1 218.2 503.2C217.6 504.4 216.7 505.7 215.2 506.4C213.7 507 212.1 506.6 210.8 506.1C209.6 505.7 208.4 505.1 207.3 504.7C205.1 504 202.9 504.6 201.5 505.5C200 506.4 199.1 507.6 198.6 508.5C198.2 509.4 198.1 510 198 509.9C197.9 509.9 197.9 509.3 198.3 508.3C198.6 507.3 199.5 506 201.1 504.9C202.6 503.8 205.1 503 207.6 503.8C208.8 504.2 210 504.7 211.2 505.2C212.4 505.6 213.7 505.9 214.8 505.4C215.9 504.9 216.7 503.8 217.4 502.7C218 501.6 218.6 500.4 219.4 499.4C221.1 497.4 223.3 496.5 225.2 496.1C227.1 495.8 228.6 496.1 229.6 496.4C230.6 496.8 231.1 497.1 231.1 497.2Z" fill="#FAFAFA"/>
<path d="M207.7 530C207.6 530.1 206.7 528.4 204.1 527.4C202.9 527 201.2 526.7 199.5 527.3C198.7 527.6 197.9 528.1 196.9 528.5C196 529 194.9 529.5 193.6 529.3C192.3 529 191.4 528.1 190.8 527.2C190.2 526.4 189.7 525.5 189.1 524.8C188.1 523.4 186.5 522.9 185.1 522.8C182.4 522.8 181.1 524.3 181 524.1C180.9 524.1 181.2 523.7 181.8 523.2C182.5 522.7 183.6 522.1 185.1 522.1C186.6 522 188.6 522.6 189.9 524.2C190.5 525 191 525.8 191.6 526.6C192.2 527.4 192.9 528.1 193.8 528.3C195.6 528.6 197.3 526.9 199.2 526.4C201.2 525.8 203 526.1 204.4 526.8C207.2 528 207.8 530 207.7 530Z" fill="#FAFAFA"/>
<path d="M156.2 557.6C156 557.8 155.2 556.1 152.6 555.1C151.3 554.6 149.7 554.4 148 554.9C147.2 555.2 146.4 555.7 145.4 556.2C144.5 556.7 143.4 557.2 142.1 556.9C140.8 556.7 139.9 555.7 139.3 554.9C138.6 554 138.2 553.2 137.6 552.5C136.6 551.1 134.9 550.5 133.6 550.5C130.8 550.4 129.6 552 129.5 551.8C129.4 551.8 129.7 551.3 130.3 550.8C131 550.3 132.1 549.8 133.6 549.7C135.1 549.7 137.1 550.2 138.4 551.9C139 552.6 139.5 553.5 140.1 554.3C140.7 555.1 141.4 555.7 142.3 555.9C144.1 556.2 145.8 554.6 147.7 554C149.7 553.4 151.5 553.8 152.9 554.4C155.7 555.7 156.3 557.7 156.2 557.6Z" fill="#FAFAFA"/>
<path d="M204.3 558.3C204.3 558.4 202.9 557.1 200.1 557C198.8 557 197.1 557.3 195.7 558.4C195 558.9 194.4 559.6 193.7 560.4C193 561.1 192 562 190.7 562.2C189.4 562.3 188.3 561.7 187.4 561.1C186.6 560.5 185.8 559.9 185.1 559.4C183.6 558.4 181.9 558.4 180.7 558.8C178 559.6 177.3 561.5 177.2 561.4C177.1 561.4 177.2 560.9 177.7 560.2C178.1 559.5 179 558.6 180.4 558.1C181.8 557.6 183.8 557.5 185.6 558.6C186.4 559.1 187.2 559.7 188 560.3C188.8 560.8 189.7 561.3 190.6 561.1C192.4 560.8 193.5 558.7 195.1 557.6C196.8 556.4 198.7 556.1 200.2 556.3C203.2 556.6 204.5 558.3 204.3 558.3Z" fill="#FAFAFA"/>
<path d="M188.4 580.2C188.3 580.4 187 579.1 184.2 579C182.9 578.9 181.2 579.3 179.8 580.3C179.1 580.8 178.5 581.6 177.8 582.3C177.1 583.1 176.1 583.9 174.8 584.1C173.5 584.3 172.4 583.7 171.5 583.1C170.7 582.5 169.9 581.8 169.2 581.4C167.7 580.4 166 580.4 164.8 580.8C162.1 581.6 161.4 583.5 161.3 583.3C161.2 583.3 161.3 582.9 161.7 582.2C162.2 581.5 163.1 580.6 164.5 580.1C165.9 579.5 167.9 579.4 169.7 580.5C170.5 581 171.3 581.7 172.1 582.2C172.9 582.8 173.8 583.2 174.7 583.1C176.5 582.8 177.6 580.7 179.2 579.5C180.9 578.4 182.8 578.1 184.3 578.2C187.3 578.5 188.5 580.2 188.4 580.2Z" fill="#FAFAFA"/>
<path d="M154.9 634.8C154.7 634.9 153.8 633.2 151.2 632.2C150 631.8 148.3 631.6 146.6 632.2C145.8 632.4 145 633 144.1 633.5C143.2 633.9 142 634.5 140.7 634.2C139.4 634 138.5 633.1 137.9 632.2C137.3 631.4 136.8 630.5 136.2 629.8C135.1 628.5 133.5 627.9 132.2 627.9C129.4 627.9 128.1 629.5 128.1 629.3C128 629.2 128.2 628.8 128.9 628.3C129.5 627.8 130.7 627.2 132.2 627.2C133.6 627.1 135.6 627.6 136.9 629.2C137.6 630 138.1 630.8 138.7 631.6C139.3 632.4 140 633.1 140.9 633.2C142.7 633.5 144.4 631.8 146.3 631.2C148.3 630.6 150.1 631 151.5 631.6C154.3 632.8 155 634.8 154.9 634.8Z" fill="#FAFAFA"/>
<path d="M194.2 646.4C194.1 646.5 192.7 645.1 189.9 645C188.6 645 186.9 645.3 185.5 646.3C184.8 646.8 184.2 647.6 183.5 648.3C182.7 649 181.8 649.9 180.5 650C179.2 650.2 178 649.6 177.2 649C176.3 648.4 175.6 647.7 174.9 647.2C173.4 646.2 171.7 646.2 170.5 646.5C167.8 647.3 167.1 649.2 166.9 649.1C166.9 649.1 167 648.6 167.4 647.9C167.9 647.2 168.8 646.4 170.2 645.8C171.6 645.3 173.7 645.3 175.4 646.4C176.2 646.9 177 647.6 177.8 648.1C178.6 648.7 179.5 649.1 180.4 649C182.2 648.7 183.3 646.7 185 645.5C186.6 644.4 188.5 644.1 190 644.3C193 644.6 194.3 646.3 194.2 646.4Z" fill="#FAFAFA"/>
<path d="M64.6 481C65.8 482.4 109.8 541.2 109.8 541.2L103.6 544.7L58.5 486.6L64.6 481Z" fill="#18181B"/>
<path d="M236.3 522.9C236.3 522.9 195 594 192.2 595.3C186.7 597.9 123.5 543.2 117.4 538C116.6 536.9 114.9 534.5 111.5 529.9C111.5 529.9 106.5 507 101.2 508.8C95.9001 510.5 104.1 520.4 100.6 529.1C97.2001 537.8 81.3001 517.1 80.6001 515.2L76.5001 509.8C76.5001 509.8 72.2001 522 72.5001 527.1C73.5001 543.4 88.9001 562.8 88.9001 562.8C88.9001 562.8 151.6 641.3 199 644C212.7 644.8 238.8 605.4 255 576.3C264.8 558.8 260.2 541 244 529.1L236.3 522.9Z" fill="#FFBE9D"/>
<path d="M80.3001 530C80.2001 530.1 78.4001 527.6 76.8001 524.3C75.1001 520.9 74.2001 518 74.4001 518C74.5001 517.9 75.7001 520.7 77.4001 524C79.0001 527.3 80.5001 529.9 80.3001 530Z" fill="#EB996E"/>
<path d="M234.3 503.1C232.7 504.1 194.3 575.3 194.3 575.3L243.7 614C243.7 614 256.6 582.3 263.3 556.6C265.2 549.6 264.2 531 261.6 523.8C257.9 513.6 252.4 516.1 244 510.1L234.3 503.1Z" fill="#FFCB00"/>
<g opacity="0.7">
<path d="M250.5 503.1C250.5 503.2 250.1 502.8 249.1 502.4C248.2 501.9 246.7 501.4 244.8 501.5C242.9 501.5 240.6 502.5 238.4 504.2C236.1 505.8 234 508.2 231.9 511.1C229.8 513.9 228.1 517.4 226 521C223.933 524.667 221.733 528.533 219.4 532.6C214.8 540.7 209.6 549.7 204.3 559.1C201 564.8 197.8 570.3 194.8 575.5L194.7 574.9C208 585.5 219.7 594.7 228.1 601.3C232.1 604.6 235.4 607.2 237.8 609.1C238.8 609.967 239.633 610.667 240.3 611.2C240.9 611.667 241.2 611.933 241.2 612C241.133 612 240.8 611.767 240.2 611.3C239.533 610.833 238.633 610.2 237.5 609.4C235.1 607.5 231.8 605 227.7 601.8C219.2 595.2 207.5 586.2 194 575.7L193.7 575.4L193.9 575C196.9 569.8 200.1 564.3 203.3 558.6C208.7 549.2 213.9 540.3 218.6 532.1C220.933 528.033 223.167 524.2 225.3 520.6C227.4 517 229.2 513.5 231.3 510.7C233.4 507.8 235.7 505.4 238 503.7C240.3 502 242.7 501.1 244.8 501.1C246.8 501 248.3 501.7 249.2 502.2C249.7 502.4 250 502.7 250.2 502.9C250.467 503.033 250.567 503.1 250.5 503.1Z" fill="black"/>
</g>
<path d="M235.8 569.9C235.7 570 234.8 568.3 232.2 567.3C231 566.8 229.3 566.6 227.6 567.2C226.8 567.4 226 567.9 225 568.4C224.1 568.9 223 569.4 221.7 569.2C220.4 568.9 219.5 568 218.9 567.1C218.3 566.3 217.8 565.4 217.2 564.7C216.2 563.3 214.6 562.8 213.2 562.7C210.5 562.6 209.2 564.2 209.1 564C209 564 209.3 563.6 209.9 563.1C210.6 562.6 211.7 562 213.2 562C214.7 561.9 216.7 562.5 218 564.1C218.6 564.9 219.1 565.7 219.7 566.5C220.3 567.3 221 568 221.9 568.1C223.7 568.5 225.4 566.8 227.3 566.3C229.3 565.7 231.1 566 232.5 566.6C235.3 567.9 235.9 569.9 235.8 569.9Z" fill="#FAFAFA"/>
<path d="M258.4 560.7C258.2 560.8 257.8 558.9 255.6 557.2C254.5 556.4 253 555.8 251.2 555.8C250.4 555.9 249.4 556.2 248.4 556.4C247.4 556.6 246.1 556.7 245 556.2C243.8 555.6 243.2 554.4 242.8 553.4C242.5 552.4 242.2 551.5 241.9 550.7C241.2 549 239.8 548.1 238.6 547.7C235.9 546.9 234.3 548 234.2 547.8C234.2 547.8 234.5 547.4 235.3 547.1C236.1 546.8 237.3 546.6 238.8 547C240.2 547.3 241.9 548.4 242.8 550.3C243.2 551.2 243.4 552.2 243.8 553.1C244.1 554 244.6 554.8 245.4 555.2C247.1 556 249.2 554.9 251.2 554.9C253.2 554.9 254.9 555.7 256.1 556.6C258.4 558.6 258.5 560.7 258.4 560.7Z" fill="#FAFAFA"/>
<path d="M259.5 531.2C259.4 531.3 259 529.4 256.8 527.8C255.7 527 254.1 526.3 252.4 526.4C251.5 526.4 250.6 526.7 249.6 526.9C248.6 527.1 247.3 527.3 246.1 526.7C244.9 526.1 244.3 525 244 524C243.6 523 243.4 522.1 243 521.2C242.4 519.6 241 518.7 239.7 518.2C237.1 517.4 235.4 518.6 235.4 518.4C235.4 518.3 235.7 518 236.4 517.7C237.2 517.4 238.5 517.2 239.9 517.5C241.4 517.9 243.1 519 243.9 520.9C244.3 521.8 244.6 522.7 244.9 523.6C245.3 524.6 245.8 525.4 246.6 525.8C248.3 526.6 250.3 525.5 252.3 525.5C254.4 525.4 256.1 526.3 257.2 527.2C259.5 529.2 259.6 531.3 259.5 531.2Z" fill="#FAFAFA"/>
<path d="M248.6 598.9C248.4 599 248.1 597.1 245.8 595.5C244.8 594.7 243.2 594 241.4 594.1C240.6 594.1 239.7 594.4 238.6 594.6C237.6 594.8 236.4 595 235.2 594.4C234 593.8 233.4 592.6 233.1 591.7C232.7 590.7 232.5 589.7 232.1 588.9C231.5 587.3 230.1 586.3 228.8 585.9C226.2 585.1 224.5 586.2 224.5 586.1C224.4 586 224.8 585.7 225.5 585.4C226.3 585.1 227.5 584.8 229 585.2C230.4 585.5 232.2 586.6 233 588.5C233.4 589.4 233.7 590.4 234 591.3C234.4 592.2 234.9 593.1 235.7 593.5C237.4 594.3 239.4 593.1 241.4 593.1C243.5 593.1 245.2 593.9 246.3 594.9C248.6 596.9 248.7 599 248.6 598.9Z" fill="#FAFAFA"/>
</g>
<defs>
<clipPath id="clip0_9780_155">
<rect width="782" height="831" fill="white"/>
</clipPath>
</defs>
</svg>
