<svg width="139" height="63" viewBox="0 0 139 63" fill="none" xmlns="http://www.w3.org/2000/svg">
<g clip-path="url(#clip0_9156_13)">
<path d="M5 5.5L10.5 0H139V35L134.5 39.5L129 45H0V10.5195L5 5.5Z" fill="#0047FF"/>
<path d="M5.35355 23.8536L5.35424 23.8529L10.7071 18.5H138.5V52.7929L134.146 57.1464L128.793 62.5H0.5V28.7261L5.35355 23.8536Z" fill="#0C0D13" stroke="#0047FF"/>
<path d="M92.3501 29H96.5801L110.95 46.1V29H114.25V51.38H111.01L98.1701 35.99V51.38H94.9601V32.15L92.3501 29Z" fill="white"/>
<path d="M75.98 29H79.58L90.35 51.77H86.69L85.22 48.5H78.41C74.33 48.5 72.14 49.79 71.63 50.72L71.06 51.77H67.52L77.21 31.76L75.98 29ZM83.75 45.2L78.86 35.75L73.91 46.46C74.72 45.77 76.55 45.2 79.61 45.2H83.75Z" fill="white"/>
<path d="M55.5601 38.84C58.2601 36.02 60.5101 32.45 61.7701 29H65.5201C63.3901 33.98 60.5101 38.06 57.1801 41.69V51.38H53.9401V41.69C50.6101 38.06 47.7301 33.98 45.6001 29H49.3501C50.6101 32.45 52.8601 36.02 55.5601 38.84Z" fill="white"/>
<path d="M33.91 42.11H31.3C29.86 42.11 28.42 42.26 27.07 42.98V51.38H23.8V29H35.5601C39.64 29 42.6101 31.37 42.6101 35.6C42.6101 38.99 40.6901 41.18 37.45 41.99L39.19 45.56C40.6 47.63 41.1101 48.08 42.55 48.08H42.8801L43.6 48.05V51.38C40.99 51.38 38.35 51.38 36.64 47.84L33.91 42.11ZM27.07 39.71C28.42 38.93 29.83 38.84 31.3 38.84H35.5601C37.81 38.84 39.37 37.82 39.37 35.42C39.37 33.08 37.69 32.27 35.5601 32.27H27.07V39.71Z" fill="white"/>
<path d="M119.25 51.9C121.26 51.9 121.83 51.48 121.83 49.95V43.92C121.83 42.09 122.31 40.95 123.6 40.38C122.31 39.81 121.8 38.58 121.8 36.75V30.96C121.8 29.4 121.26 28.98 119.25 28.98V27C123.21 27 124.56 28.14 124.56 31.02V37.2C124.56 39.09 125.01 39.45 127.05 39.45V41.22C124.8 41.22 124.53 41.82 124.53 43.5V49.89C124.53 52.74 123.21 53.88 119.25 53.88V51.9Z" fill="#0047FF"/>
<path d="M18.8 53.88C14.84 53.88 13.52 52.74 13.52 49.89V43.5C13.52 41.82 13.25 41.22 11 41.22V39.45C13.04 39.45 13.49 39.09 13.49 37.2V31.02C13.49 28.14 14.84 27 18.8 27V28.98C16.79 28.98 16.25 29.4 16.25 30.96V36.75C16.25 38.58 15.74 39.81 14.45 40.38C15.74 40.95 16.22 42.09 16.22 43.92V49.95C16.22 51.48 16.79 51.9 18.8 51.9V53.88Z" fill="#0047FF"/>
<path d="M12.72 14V5.6H15.504C16.084 5.6 16.626 5.71 17.13 5.93C17.638 6.146 18.084 6.448 18.468 6.836C18.856 7.22 19.158 7.666 19.374 8.174C19.594 8.678 19.704 9.22 19.704 9.8C19.704 10.38 19.594 10.924 19.374 11.432C19.158 11.936 18.856 12.382 18.468 12.77C18.084 13.154 17.638 13.456 17.13 13.676C16.626 13.892 16.084 14 15.504 14H12.72ZM14.184 12.536H15.504C15.876 12.536 16.226 12.466 16.554 12.326C16.886 12.182 17.178 11.986 17.43 11.738C17.682 11.486 17.88 11.196 18.024 10.868C18.168 10.536 18.24 10.18 18.24 9.8C18.24 9.42 18.168 9.066 18.024 8.738C17.88 8.41 17.682 8.12 17.43 7.868C17.178 7.616 16.888 7.42 16.56 7.28C16.232 7.136 15.88 7.064 15.504 7.064H14.184V12.536ZM20.677 14V5.6H25.945V7.064H22.141V8.768H25.159V10.232H22.141V12.536H25.945V14H20.677ZM30.287 14.156C29.823 14.156 29.377 14.084 28.949 13.94C28.525 13.792 28.153 13.582 27.833 13.31C27.513 13.034 27.283 12.704 27.143 12.32L28.517 11.816C28.573 11.976 28.687 12.122 28.859 12.254C29.031 12.386 29.241 12.492 29.489 12.572C29.737 12.652 30.003 12.692 30.287 12.692C30.579 12.692 30.851 12.648 31.103 12.56C31.359 12.468 31.565 12.342 31.721 12.182C31.877 12.018 31.955 11.828 31.955 11.612C31.955 11.392 31.873 11.212 31.709 11.072C31.545 10.928 31.335 10.814 31.079 10.73C30.823 10.646 30.559 10.582 30.287 10.538C29.691 10.446 29.157 10.304 28.685 10.112C28.213 9.92 27.839 9.654 27.563 9.314C27.291 8.974 27.155 8.534 27.155 7.994C27.155 7.486 27.301 7.042 27.593 6.662C27.885 6.282 28.269 5.986 28.745 5.774C29.221 5.562 29.735 5.456 30.287 5.456C30.747 5.456 31.191 5.528 31.619 5.672C32.047 5.816 32.421 6.026 32.741 6.302C33.065 6.578 33.297 6.91 33.437 7.298L32.057 7.796C32.001 7.636 31.887 7.49 31.715 7.358C31.543 7.226 31.333 7.122 31.085 7.046C30.837 6.966 30.571 6.926 30.287 6.926C30.003 6.922 29.733 6.968 29.477 7.064C29.225 7.156 29.019 7.282 28.859 7.442C28.699 7.602 28.619 7.786 28.619 7.994C28.619 8.262 28.693 8.464 28.841 8.6C28.993 8.736 29.195 8.836 29.447 8.9C29.699 8.96 29.979 9.016 30.287 9.068C30.847 9.156 31.365 9.304 31.841 9.512C32.317 9.72 32.699 9.998 32.987 10.346C33.275 10.69 33.419 11.112 33.419 11.612C33.419 12.12 33.275 12.566 32.987 12.95C32.699 13.33 32.317 13.626 31.841 13.838C31.365 14.05 30.847 14.156 30.287 14.156ZM34.7864 14V5.6H40.0544V7.064H36.2504V8.768H39.2684V10.232H36.2504V12.536H40.0544V14H34.7864ZM41.4075 14V5.6H42.9915L46.5375 11.354V5.6H48.0015V14H46.4235L42.8715 8.246V14H41.4075ZM52.3192 14L49.2712 5.6H50.8252L53.2552 12.29L55.6912 5.6H57.2392L54.1912 14H52.3192ZM61.9716 14.156C61.4036 14.156 60.8696 14.044 60.3696 13.82C59.8696 13.592 59.4296 13.278 59.0496 12.878C58.6696 12.478 58.3716 12.016 58.1556 11.492C57.9396 10.964 57.8316 10.4 57.8316 9.8C57.8316 9.2 57.9396 8.638 58.1556 8.114C58.3716 7.586 58.6696 7.122 59.0496 6.722C59.4296 6.322 59.8696 6.01 60.3696 5.786C60.8696 5.558 61.4036 5.444 61.9716 5.444C62.5436 5.444 63.0796 5.558 63.5796 5.786C64.0796 6.01 64.5196 6.322 64.8996 6.722C65.2796 7.122 65.5756 7.586 65.7876 8.114C66.0036 8.638 66.1116 9.2 66.1116 9.8C66.1116 10.4 66.0036 10.964 65.7876 11.492C65.5756 12.016 65.2796 12.478 64.8996 12.878C64.5196 13.278 64.0796 13.592 63.5796 13.82C63.0796 14.044 62.5436 14.156 61.9716 14.156ZM61.9716 12.692C62.3396 12.692 62.6856 12.616 63.0096 12.464C63.3336 12.312 63.6176 12.104 63.8616 11.84C64.1096 11.572 64.3016 11.264 64.4376 10.916C64.5776 10.568 64.6476 10.196 64.6476 9.8C64.6476 9.404 64.5776 9.032 64.4376 8.684C64.2976 8.332 64.1036 8.024 63.8556 7.76C63.6116 7.496 63.3276 7.288 63.0036 7.136C62.6836 6.984 62.3396 6.908 61.9716 6.908C61.6036 6.908 61.2576 6.984 60.9336 7.136C60.6096 7.288 60.3236 7.498 60.0756 7.766C59.8316 8.03 59.6396 8.336 59.4996 8.684C59.3636 9.032 59.2956 9.404 59.2956 9.8C59.2956 10.2 59.3656 10.574 59.5056 10.922C59.6456 11.27 59.8376 11.578 60.0816 11.846C60.3296 12.11 60.6136 12.318 60.9336 12.47C61.2576 12.618 61.6036 12.692 61.9716 12.692ZM67.2005 14V5.6H68.6645V12.536H72.1625V14H67.2005ZM75.159 14L72.111 5.6H73.665L76.095 12.29L78.531 5.6H80.079L77.031 14H75.159ZM81.3375 14V5.6H82.8015V14H81.3375ZM84.427 14V5.6H87.211C87.791 5.6 88.333 5.71 88.837 5.93C89.345 6.146 89.791 6.448 90.175 6.836C90.563 7.22 90.865 7.666 91.081 8.174C91.301 8.678 91.411 9.22 91.411 9.8C91.411 10.38 91.301 10.924 91.081 11.432C90.865 11.936 90.563 12.382 90.175 12.77C89.791 13.154 89.345 13.456 88.837 13.676C88.333 13.892 87.791 14 87.211 14H84.427ZM85.891 12.536H87.211C87.583 12.536 87.933 12.466 88.261 12.326C88.593 12.182 88.885 11.986 89.137 11.738C89.389 11.486 89.587 11.196 89.731 10.868C89.875 10.536 89.947 10.18 89.947 9.8C89.947 9.42 89.875 9.066 89.731 8.738C89.587 8.41 89.389 8.12 89.137 7.868C88.885 7.616 88.595 7.42 88.267 7.28C87.939 7.136 87.587 7.064 87.211 7.064H85.891V12.536ZM96.2958 14.156C95.7278 14.156 95.1938 14.044 94.6938 13.82C94.1938 13.592 93.7538 13.278 93.3738 12.878C92.9938 12.478 92.6958 12.016 92.4798 11.492C92.2638 10.964 92.1558 10.4 92.1558 9.8C92.1558 9.2 92.2638 8.638 92.4798 8.114C92.6958 7.586 92.9938 7.122 93.3738 6.722C93.7538 6.322 94.1938 6.01 94.6938 5.786C95.1938 5.558 95.7278 5.444 96.2958 5.444C96.8678 5.444 97.4038 5.558 97.9038 5.786C98.4038 6.01 98.8438 6.322 99.2238 6.722C99.6038 7.122 99.8998 7.586 100.112 8.114C100.328 8.638 100.436 9.2 100.436 9.8C100.436 10.4 100.328 10.964 100.112 11.492C99.8998 12.016 99.6038 12.478 99.2238 12.878C98.8438 13.278 98.4038 13.592 97.9038 13.82C97.4038 14.044 96.8678 14.156 96.2958 14.156ZM96.2958 12.692C96.6638 12.692 97.0098 12.616 97.3338 12.464C97.6578 12.312 97.9418 12.104 98.1858 11.84C98.4338 11.572 98.6258 11.264 98.7618 10.916C98.9018 10.568 98.9718 10.196 98.9718 9.8C98.9718 9.404 98.9018 9.032 98.7618 8.684C98.6218 8.332 98.4278 8.024 98.1798 7.76C97.9358 7.496 97.6518 7.288 97.3278 7.136C97.0078 6.984 96.6638 6.908 96.2958 6.908C95.9278 6.908 95.5818 6.984 95.2578 7.136C94.9338 7.288 94.6478 7.498 94.3998 7.766C94.1558 8.03 93.9638 8.336 93.8238 8.684C93.6878 9.032 93.6198 9.404 93.6198 9.8C93.6198 10.2 93.6898 10.574 93.8298 10.922C93.9698 11.27 94.1618 11.578 94.4058 11.846C94.6538 12.11 94.9378 12.318 95.2578 12.47C95.5818 12.618 95.9278 12.692 96.2958 12.692ZM104.513 14V5.6H107.513C107.969 5.6 108.381 5.714 108.749 5.942C109.121 6.17 109.415 6.476 109.631 6.86C109.847 7.244 109.955 7.666 109.955 8.126C109.955 8.598 109.843 9.026 109.619 9.41C109.399 9.79 109.103 10.094 108.731 10.322C108.359 10.546 107.953 10.658 107.513 10.658H105.977V14H104.513ZM105.977 9.194H107.357C107.565 9.194 107.755 9.142 107.927 9.038C108.099 8.934 108.235 8.794 108.335 8.618C108.439 8.442 108.491 8.246 108.491 8.03C108.491 7.81 108.439 7.612 108.335 7.436C108.235 7.26 108.099 7.12 107.927 7.016C107.755 6.912 107.565 6.86 107.357 6.86H105.977V9.194ZM115.058 14.156C114.49 14.156 113.956 14.044 113.456 13.82C112.956 13.592 112.516 13.278 112.136 12.878C111.756 12.478 111.458 12.016 111.242 11.492C111.026 10.964 110.918 10.4 110.918 9.8C110.918 9.2 111.026 8.638 111.242 8.114C111.458 7.586 111.756 7.122 112.136 6.722C112.516 6.322 112.956 6.01 113.456 5.786C113.956 5.558 114.49 5.444 115.058 5.444C115.63 5.444 116.166 5.558 116.666 5.786C117.166 6.01 117.606 6.322 117.986 6.722C118.366 7.122 118.662 7.586 118.874 8.114C119.09 8.638 119.198 9.2 119.198 9.8C119.198 10.4 119.09 10.964 118.874 11.492C118.662 12.016 118.366 12.478 117.986 12.878C117.606 13.278 117.166 13.592 116.666 13.82C116.166 14.044 115.63 14.156 115.058 14.156ZM115.058 12.692C115.426 12.692 115.772 12.616 116.096 12.464C116.42 12.312 116.704 12.104 116.948 11.84C117.196 11.572 117.388 11.264 117.524 10.916C117.664 10.568 117.734 10.196 117.734 9.8C117.734 9.404 117.664 9.032 117.524 8.684C117.384 8.332 117.19 8.024 116.942 7.76C116.698 7.496 116.414 7.288 116.09 7.136C115.77 6.984 115.426 6.908 115.058 6.908C114.69 6.908 114.344 6.984 114.02 7.136C113.696 7.288 113.41 7.498 113.162 7.766C112.918 8.03 112.726 8.336 112.586 8.684C112.45 9.032 112.382 9.404 112.382 9.8C112.382 10.2 112.452 10.574 112.592 10.922C112.732 11.27 112.924 11.578 113.168 11.846C113.416 12.11 113.7 12.318 114.02 12.47C114.344 12.618 114.69 12.692 115.058 12.692ZM120.286 14V5.6H123.508C123.964 5.6 124.376 5.714 124.744 5.942C125.112 6.17 125.404 6.476 125.62 6.86C125.836 7.24 125.944 7.662 125.944 8.126C125.944 8.506 125.874 8.856 125.734 9.176C125.598 9.492 125.406 9.766 125.158 9.998C124.914 10.23 124.632 10.406 124.312 10.526L126.322 14H124.636L122.692 10.658H121.75V14H120.286ZM121.75 9.194H123.34C123.548 9.194 123.738 9.142 123.91 9.038C124.082 8.934 124.22 8.794 124.324 8.618C124.428 8.442 124.48 8.246 124.48 8.03C124.48 7.81 124.428 7.612 124.324 7.436C124.22 7.26 124.082 7.12 123.91 7.016C123.738 6.912 123.548 6.86 123.34 6.86H121.75V9.194Z" fill="white"/>
</g>
<defs>
<clipPath id="clip0_9156_13">
<rect width="139" height="63" fill="white"/>
</clipPath>
</defs>
</svg>
