<svg width="252" height="816" viewBox="0 0 252 816" fill="none" xmlns="http://www.w3.org/2000/svg">
<g opacity="0.3">
<path d="M165.286 201.786H164.786V202.286V302.286C164.786 337.439 136.152 366.072 101 366.072C65.8476 366.072 37.2143 337.439 37.2143 302.286L37.2143 202.286V201.786H36.7143H1H0.5V202.286L0.5 302.286C0.5 357.705 45.581 402.786 101 402.786C156.419 402.786 201.5 357.705 201.5 302.286V202.286V201.786H201H165.286Z" stroke="url(#paint0_linear_9361_76)" stroke-opacity="0.5"/>
<path d="M1.00143 1.5L0.5 1.49857V2L0.5 202.286V202.786H1H101.143C128.749 202.786 153.768 191.571 171.885 173.167C171.885 173.167 171.885 173.167 171.886 173.166L171.891 173.161C173.888 171.164 175.902 169.15 177.631 167.132L177.632 167.131C192.586 149.59 201.5 126.872 201.5 102.143C201.5 46.6433 156.353 1.78612 100.857 1.78612L1.00143 1.5ZM36.9793 38.5515H100.857C136.06 38.5515 164.735 67.2261 164.735 102.429C164.735 137.632 136.06 166.307 100.857 166.307H36.9793L36.9793 38.5515Z" stroke="url(#paint1_linear_9361_76)" stroke-opacity="0.5"/>
<path d="M1.00143 401.786L0.5 401.785V402.286L0.5 602.572V603.072H1H101.143C128.748 603.072 153.767 591.857 171.884 573.454C171.884 573.454 171.885 573.453 171.886 573.452L171.891 573.447C173.888 571.45 175.902 569.436 177.631 567.418L177.632 567.417C192.586 549.876 201.5 527.158 201.5 502.429C201.5 446.929 156.353 402.072 100.857 402.072L1.00143 401.786ZM36.9793 438.838H100.857C136.06 438.838 164.735 467.512 164.735 502.715C164.735 537.918 136.06 566.593 100.857 566.593H36.9793L36.9793 438.838Z" stroke="url(#paint2_linear_9361_76)" stroke-opacity="0.5"/>
<path d="M201.004 661.469L201.5 661.465V660.969V659.758C201.5 628.015 175.558 602.072 143.814 602.072H57.8835C26.1364 602.072 0.5 628.018 0.5 659.758V660.969C0.5 673.168 4.15901 684.461 10.5689 693.621C12.7046 696.976 15.146 700.027 17.893 702.775L17.8984 702.78C28.276 712.852 42.3181 718.957 57.8835 718.957H134.132C149.899 718.957 162.981 731.751 162.981 747.504C162.981 763.258 149.899 776.051 134.132 776.051H67.8684C52.1082 776.051 39.3215 763.264 39.3215 747.504V747.004H38.8215H1H0.5V747.504C0.5 784.694 30.6785 814.873 67.8684 814.873H134.132C171.322 814.873 201.5 784.694 201.5 747.504C201.5 731.347 195.708 716.411 186.259 704.828L186.243 704.808L186.225 704.791C185.789 704.355 185.425 703.918 185.045 703.462L185.04 703.456C184.667 703.009 184.279 702.543 183.813 702.076C171.62 688.668 153.941 680.136 134.132 680.136H57.8835C47.5696 680.136 39.0189 671.585 39.0189 661.271V660.061C39.0189 649.747 47.5696 641.196 57.8835 641.196H143.814C154.128 641.196 162.679 649.747 162.679 660.061V661.271V661.775L163.183 661.771L201.004 661.469Z" stroke="url(#paint3_linear_9361_76)" stroke-opacity="0.5"/>
</g>
<defs>
<linearGradient id="paint0_linear_9361_76" x1="101" y1="202.286" x2="101" y2="402.286" gradientUnits="userSpaceOnUse">
<stop stop-color="#2D2819"/>
<stop offset="1" stop-color="#2D2819" stop-opacity="0"/>
</linearGradient>
<linearGradient id="paint1_linear_9361_76" x1="101" y1="2" x2="101" y2="202" gradientUnits="userSpaceOnUse">
<stop stop-color="#2D2819"/>
<stop offset="1" stop-color="#2D2819" stop-opacity="0"/>
</linearGradient>
<linearGradient id="paint2_linear_9361_76" x1="101" y1="402.286" x2="101" y2="602.286" gradientUnits="userSpaceOnUse">
<stop stop-color="#2D2819"/>
<stop offset="1" stop-color="#2D2819" stop-opacity="0"/>
</linearGradient>
<linearGradient id="paint3_linear_9361_76" x1="101" y1="602.572" x2="101" y2="814.572" gradientUnits="userSpaceOnUse">
<stop stop-color="#2D2819"/>
<stop offset="1" stop-color="#2D2819" stop-opacity="0"/>
</linearGradient>
</defs>
</svg>
