<svg width="100" height="100" viewBox="0 0 100 100" fill="none" xmlns="http://www.w3.org/2000/svg">
<path d="M31.2971 42.1751C31.3643 42.0399 31.3859 41.8833 31.358 41.7327C31.3301 41.582 31.2544 41.4466 31.1443 41.35C31.0341 41.2535 30.8963 41.2017 30.7547 41.2038C30.6131 41.2059 30.4766 41.2617 30.3689 41.3615C23.1574 49.1363 17.6476 58.1509 13.8395 68.4054C13.7289 68.7039 13.5405 68.9594 13.2987 69.139C13.0568 69.3186 12.7726 69.414 12.4829 69.4128H0.844501C0.644586 69.4097 0.451988 69.3308 0.300026 69.1898C0.148064 69.0488 0.0462988 68.8545 0.0123994 68.6407C-0.0215 68.4268 0.0146275 68.2068 0.114431 68.0188C0.214234 67.8308 0.37143 67.6866 0.55889 67.6111L5.14642 65.9451C5.38877 65.8599 5.61328 65.7216 5.80649 65.5386C5.9997 65.3555 6.15766 65.1314 6.271 64.8796C11.4119 53.3466 18.2366 43.189 26.7453 34.4068C27.257 33.8902 27.4176 33.2703 27.2272 32.547L24.1213 20.0518C24.0974 19.9482 24.1051 19.8378 24.1432 19.7383C24.1814 19.6387 24.2477 19.5556 24.3318 19.5022C24.4158 19.4488 24.5128 19.4281 24.6072 19.4435C24.7017 19.4588 24.7882 19.5093 24.8531 19.5869L36.2594 32.0627C36.3876 32.2024 36.5422 32.3096 36.7119 32.3766C36.8817 32.4436 37.0624 32.4687 37.2412 32.4502L47.1839 31.5591C47.4508 31.5394 47.7009 31.4083 47.8832 31.1924C48.0655 30.9765 48.1665 30.692 48.1656 30.3967V22.2797C48.1681 22.0899 48.1182 21.9037 48.0223 21.7451C47.9263 21.5864 47.7888 21.4626 47.6274 21.3896C47.466 21.3166 47.2882 21.2978 47.1169 21.3356C46.9455 21.3734 46.7885 21.4661 46.6662 21.6016L42.3107 26.3285C42.2155 26.4276 42.0918 26.4902 41.9597 26.5061C41.8276 26.522 41.6949 26.4904 41.5831 26.4163C41.4714 26.3422 41.3873 26.23 41.3444 26.098C41.3015 25.966 41.3023 25.8219 41.3468 25.6892L49.1473 0.698773C49.2075 0.495804 49.3255 0.318795 49.4843 0.193225C49.6431 0.0676544 49.8345 0 50.031 0C50.2274 0 50.4188 0.0676544 50.5776 0.193225C50.7364 0.318795 50.8544 0.495804 50.9146 0.698773L58.5902 25.1855C58.644 25.3487 58.6445 25.527 58.5916 25.6905C58.5387 25.854 58.4356 25.9928 58.2996 26.0837C58.1636 26.1745 58.003 26.2118 57.8446 26.1894C57.6863 26.1669 57.5398 26.0861 57.4299 25.9604L53.3244 21.4854C53.2093 21.3566 53.0618 21.2685 52.9004 21.2321C52.7389 21.1958 52.5706 21.2127 52.4164 21.2809C52.2622 21.3491 52.129 21.4655 52.0333 21.6155C51.9376 21.7656 51.8837 21.9427 51.8784 22.1247L51.6821 30.203C51.6763 30.4822 51.7682 30.7539 51.9398 30.9653C52.1114 31.1766 52.3504 31.3123 52.6103 31.346L62.071 32.4502C62.3097 32.4807 62.5525 32.4512 62.7813 32.364C63.01 32.2768 63.2188 32.134 63.3919 31.9465L74.5483 19.6644C74.6363 19.5627 74.7534 19.4963 74.8805 19.4758C75.0076 19.4553 75.1374 19.4819 75.2489 19.5513C75.3604 19.6208 75.447 19.729 75.4947 19.8585C75.5425 19.988 75.5487 20.1312 75.5122 20.2649L72.3706 32.6439C72.1802 33.3542 72.3349 33.9612 72.8347 34.4649C81.3314 43.1179 88.1324 53.1529 93.2375 64.5697C93.4789 65.1175 93.901 65.5409 94.4157 65.7514L99.5566 67.9017C99.708 67.969 99.8335 68.0908 99.9122 68.2466C99.9908 68.4023 100.018 68.5827 99.9885 68.7575C99.9592 68.9322 99.8755 69.0907 99.7514 69.2065C99.6272 69.3223 99.4702 69.3883 99.3066 69.3934L87.097 69.4128C86.5734 69.4128 86.2045 69.148 85.9903 68.6185C82.0633 58.7579 76.2084 46.9601 67.8188 40.8578C67.0929 40.3283 66.9441 40.4768 67.3725 41.3034C73.9652 54.2183 72.5193 65.2735 63.0349 74.469C60.2859 77.1424 56.5017 78.9246 52.9852 79.1959C52.6944 79.2172 52.4145 79.324 52.1754 79.5048C51.9363 79.6856 51.7469 79.9336 51.6277 80.2222C51.5085 80.5108 51.4639 80.8292 51.4986 81.1432C51.5334 81.4572 51.6461 81.7551 51.8249 82.0049L56.3945 88.4753C56.7317 88.9552 56.9304 89.5281 56.9658 90.1219L57.4299 99.0332C57.4413 99.233 57.3917 99.4313 57.2888 99.5975C57.1859 99.7636 57.0354 99.8883 56.8606 99.9523C56.6858 100.016 56.4965 100.016 56.3219 99.9513C56.1473 99.8867 55.9972 99.7615 55.8947 99.595L53.0744 94.9456C52.9998 94.8237 52.8933 94.7286 52.7687 94.6727C52.644 94.6167 52.5067 94.6024 52.3745 94.6315C52.2422 94.6606 52.1211 94.7318 52.0263 94.8361C51.9316 94.9404 51.8677 95.073 51.8427 95.2169L51.3786 97.9678C51.2239 98.9235 50.7182 99.2399 49.8614 98.917C48.5405 98.4133 47.9752 97.3478 48.1656 95.7205C48.1908 95.5092 48.1496 95.2949 48.0489 95.1119C47.9482 94.929 47.7937 94.7882 47.6103 94.7122C47.4269 94.6361 47.2252 94.6293 47.0378 94.6927C46.8503 94.7561 46.688 94.8862 46.5769 95.0619L44.0779 99.0139C43.4591 99.9825 43.0069 99.8985 42.7213 98.762C41.0077 91.9171 42.6558 86.6542 47.6658 82.9735C47.9606 82.7594 48.1877 82.4523 48.3164 82.0937C48.4451 81.735 48.4692 81.3421 48.3855 80.9681C48.3017 80.5941 48.1142 80.257 47.8482 80.0024C47.5822 79.7478 47.2506 79.588 46.8982 79.5446C30.2975 77.3555 22.7825 57.1307 31.2971 42.1751ZM51.0573 65.3252C48.9629 67.3399 46.4996 68.2246 43.6673 67.9792C43.3865 67.9564 43.1197 67.8393 42.905 67.6445C42.6902 67.4497 42.5385 67.1872 42.4714 66.8944L41.0255 60.8308C40.8827 60.2496 40.5911 59.7782 40.1508 59.4166C39.2345 58.6546 38.2111 58.1057 37.0806 57.77C36.9525 57.7317 36.8181 57.7255 36.6876 57.752C36.557 57.7785 36.4338 57.8369 36.3271 57.9228C36.2204 58.0086 36.1332 58.1198 36.072 58.2477C36.0108 58.3756 35.9772 58.517 35.9739 58.6611C35.9263 60.9858 36.8842 63.2653 38.8478 65.4996C46.7852 74.5271 54.5322 74.2882 62.0888 64.7828C62.1813 64.6678 62.2523 64.5345 62.2979 64.3904C62.3435 64.2464 62.3627 64.0945 62.3544 63.9434C62.3461 63.7923 62.3105 63.6449 62.2496 63.5098C62.1887 63.3746 62.1038 63.2542 61.9996 63.1555L48.4691 49.8079C48.3592 49.6999 48.2704 49.569 48.208 49.423C48.1456 49.277 48.1109 49.1189 48.1059 48.9581C48.1009 48.7973 48.1258 48.637 48.1789 48.4868C48.2321 48.3366 48.3126 48.1995 48.4155 48.0837C50.5933 45.5653 53.2767 44.4094 56.466 44.6161C56.6957 44.62 56.9198 44.5379 57.1003 44.3836C57.2809 44.2293 57.4069 44.0121 57.4572 43.7688C57.5075 43.5254 57.479 43.2707 57.3765 43.0475C57.274 42.8242 57.1037 42.6462 56.8944 42.5432C49.0046 39.1337 42.632 41.0386 37.7767 48.2581C37.3483 48.878 37.4019 49.4463 37.9374 49.9629L51.0752 62.8068C51.2366 62.9651 51.3652 63.1588 51.4526 63.3753C51.54 63.5919 51.5843 63.8265 51.5826 64.0639C51.581 64.3013 51.5333 64.5363 51.4428 64.7536C51.3523 64.9709 51.221 65.1656 51.0573 65.3252ZM62.2138 55.1547C63.2967 55.6067 63.7965 55.2063 63.7132 53.9536C63.4871 50.402 61.9579 47.7996 59.1257 46.1465C58.3165 45.6816 57.8583 45.9463 57.7512 46.9408C57.3228 50.9961 58.8103 53.734 62.2138 55.1547Z" fill="currentColor"/>
</svg>
