<svg width="100" height="100" viewBox="0 0 100 100" fill="none" xmlns="http://www.w3.org/2000/svg">
<path fill-rule="evenodd" clip-rule="evenodd" d="M39.6877 1.13968L39.6317 16.8003C39.5881 29.1149 39.521 32.4403 39.319 32.3645C39.1782 32.3114 32.8381 28.6991 25.2306 24.3369C10.2052 15.7219 10.476 15.8494 9.29313 16.8456C9.00627 17.0872 6.7977 20.315 4.38563 24.0187C0.505198 29.9764 0 30.8474 0 31.5763C0 32.1571 0.138332 32.5431 0.468769 32.8841C0.726467 33.1504 7.40627 37.0692 15.3125 41.593C23.2186 46.1169 29.6877 49.9001 29.6877 49.9999C29.6877 50.1001 23.2186 53.8829 15.3125 58.4068C7.40627 62.9307 0.726666 66.8494 0.468769 67.1157C0.138332 67.4571 0 67.8427 0 68.4239C0 69.1528 0.505198 70.0235 4.38563 75.9811C6.7977 79.6848 9.00627 82.9126 9.29313 83.1542C10.476 84.1505 10.2052 84.2779 25.2306 75.6629C32.8381 71.3011 39.1782 67.6888 39.319 67.6354C39.521 67.5595 39.5881 70.8849 39.6317 83.1995L39.6877 98.8601L41.0484 100H58.9516L60.3127 98.8601L60.3683 83.1995C60.4119 70.8849 60.479 67.5595 60.681 67.6354C60.8218 67.6888 67.1619 71.3011 74.7694 75.6629C89.7948 84.2779 89.5238 84.1505 90.7067 83.1542C90.9937 82.9126 93.2024 79.6848 95.6143 75.9811C99.4948 70.0235 100 69.1528 100 68.4239C100 67.8427 99.8615 67.4571 99.5313 67.1157C99.2734 66.8494 92.5937 62.9307 84.6877 58.4068C76.7814 53.8829 70.3127 50.1001 70.3127 50.0003C70.3127 49.9005 76.7814 46.1162 84.6877 41.5904C92.5937 37.0651 99.2734 33.146 99.5313 32.8812C99.8615 32.542 99.9996 32.1582 99.9992 31.5807C99.9984 30.8588 99.4786 29.9627 95.6147 24.0235C93.2036 20.3173 90.9956 17.0872 90.7079 16.8456C90.1298 16.3595 89.0187 16.2611 88.2675 16.6294C88.0175 16.7521 81.7036 20.3556 74.2377 24.6371C66.7714 28.9186 60.6091 32.4219 60.5433 32.4219C60.4778 32.4219 60.3988 25.3833 60.3683 16.7808L60.3127 1.13968L58.9516 0H41.0484L39.6877 1.13968Z" fill="currentColor"/>
</svg>
