<svg width="100" height="100" viewBox="0 0 100 100" fill="none" xmlns="http://www.w3.org/2000/svg">
<path d="M40.2112 57.3354C40.301 57.2102 40.3633 57.0685 40.3938 56.9199C40.4243 56.7712 40.4223 56.6191 40.3879 56.4738C36.161 37.1361 29.4745 18.6894 20.3285 1.13371C20.2408 0.985508 20.2066 0.811662 20.2318 0.641295C20.257 0.470928 20.34 0.314388 20.4668 0.197899C20.5937 0.0814098 20.7567 0.012047 20.9286 0.00142948C21.1005 -0.009188 21.2708 0.0395852 21.411 0.139578C38.5837 10.8909 49.6297 26.1491 54.5488 45.9139C54.8139 47.0038 55.1821 47.0332 55.6534 46.0023C60.543 35.1183 68.8348 28.0931 80.5288 24.9266C85.4185 23.5864 85.6394 24.1461 81.1916 26.6056C67.5609 34.1169 62.8332 45.9581 58.1719 62.3061C54.431 75.4286 48.8196 87.7559 41.3379 99.2878C40.6751 100.319 40.2406 100.23 40.0344 99.0227C36.8974 81.4597 34.7324 59.1469 24.6143 44.3012C21.1901 39.2643 15.2474 36.5249 10.1 33.2553C8.745 32.4011 8.86283 32.0918 10.4534 32.3274C24.4597 34.4482 35.8812 42.2687 38.5985 56.8715C38.8636 58.2706 39.4011 58.4253 40.2112 57.3354Z" fill="currentColor"/>
<path d="M20.9692 70.7458C28.3921 75.363 34.4011 79.4058 34.4453 89.1262C34.46 89.7006 34.2538 89.7964 33.8267 89.4134L27.0224 83.0952C26.8546 82.942 26.6597 82.8256 26.4504 82.7533C26.2411 82.6809 26.022 82.6544 25.8074 82.6754C9.50357 84.2439 4.99684 64.4496 7.75832 52.1224C7.77546 52.0624 7.81168 52.0096 7.8615 51.972C7.91133 51.9344 7.97205 51.9141 8.03447 51.9141C8.09688 51.9141 8.15759 51.9344 8.20741 51.972C8.25724 52.0096 8.29347 52.0624 8.31061 52.1224C9.83495 60.6056 13.7673 66.2612 20.9692 70.7458Z" fill="currentColor"/>
<path d="M54.9246 78.7207C61.751 66.8353 78.5408 60.3845 91.6634 58.816C91.7514 58.8039 91.8407 58.8235 91.9156 58.8711C91.9906 58.9187 92.0462 58.9913 92.0727 59.076C92.0991 59.1608 92.0948 59.2521 92.0603 59.3339C92.0258 59.4157 91.9634 59.4827 91.8843 59.5229C82.3406 64.6335 73.7616 71.0254 66.1473 78.6986C65.5729 79.273 64.8954 79.6633 64.1148 79.8695C58.209 81.4012 54.1809 85.0022 52.0306 90.6724C51.7802 91.3204 51.5667 91.3131 51.3899 90.6503C50.5725 87.6679 53.3782 81.4159 54.9246 78.7207Z" fill="currentColor"/>
</svg>
