<svg width="100" height="100" viewBox="0 0 100 100" fill="none" xmlns="http://www.w3.org/2000/svg">
<path d="M61.4313 22.9005L62.0225 19.9648C62.0562 19.7811 62.1404 19.6109 62.2658 19.4727C62.3913 19.3345 62.5532 19.2337 62.734 19.1811C62.9148 19.1286 63.1075 19.1263 63.2912 19.1746C63.4749 19.2229 63.6425 19.3199 63.7758 19.4551C66.7523 22.6355 68.7027 26.3664 69.6269 30.6477C69.8172 31.5719 69.4502 31.9389 68.526 31.7486C66.2698 31.3137 64.2039 31.701 62.3283 32.9106C62.0522 33.0922 61.8243 33.3374 61.6645 33.6251C61.5047 33.9128 61.4176 34.2343 61.4109 34.562C61.3157 38.3812 62.6205 41.5616 65.3252 44.1032C65.964 44.7148 66.6232 44.7284 67.3028 44.144C69.3958 42.3363 70.7686 40.0801 71.421 37.3754C71.652 36.424 72.053 36.3493 72.6238 37.1512C84.3668 53.7056 62.5525 67.5281 51.0338 75.5403C50.4901 75.9344 49.9397 75.9344 49.3824 75.5403C41.5266 70.0357 35.988 65.8156 32.7669 62.8798C24.6324 55.52 21.35 40.9636 30.8912 33.1145C30.9824 33.0375 31.0934 32.9879 31.2116 32.9714C31.3298 32.9548 31.4502 32.9721 31.559 33.0211C31.6677 33.0702 31.7604 33.149 31.8262 33.2485C31.8921 33.348 31.9284 33.4641 31.931 33.5834L32.0329 39.7607C32.0405 40.1866 32.1629 40.6024 32.3873 40.9644C32.6116 41.3264 32.9296 41.6211 33.3075 41.8174C33.6855 42.0137 34.1094 42.1043 34.5345 42.0796C34.9597 42.0549 35.3703 41.9158 35.723 41.6771C43.4905 36.458 47.8126 27.4265 37.7821 21.1268C37.6665 21.055 37.5726 20.9532 37.5102 20.8323C37.4477 20.7113 37.4192 20.5758 37.4275 20.4399C37.4359 20.3041 37.4808 20.1731 37.5576 20.0607C37.6344 19.9483 37.7402 19.8588 37.8637 19.8017C45.6924 15.9417 49.8241 9.55372 50.2591 0.637717C50.2714 0.483951 50.3347 0.338694 50.4389 0.224946C50.5431 0.111198 50.6822 0.0354582 50.8343 0.00971855C50.9864 -0.0160211 51.1428 0.00971032 51.2786 0.0828388C51.4144 0.155967 51.522 0.272314 51.5842 0.413458C54.1326 7.08007 52.6851 22.6355 59.7595 24.0218C60.6973 24.1985 61.2546 23.8248 61.4313 22.9005Z" fill="currentColor"/>
<path d="M32.0532 70.0561L49.6678 83.7563C50.2386 84.2049 50.8094 84.2049 51.3803 83.7563L69.8511 69.4445C70.5986 68.8737 70.7481 68.1669 70.2996 67.3243L69.7492 66.2845C69.6306 66.0628 69.5755 65.8126 69.59 65.5615C69.6045 65.3104 69.6881 65.0683 69.8314 64.8617C69.9748 64.655 70.1724 64.492 70.4025 64.3905C70.6326 64.2891 70.8862 64.2531 71.1355 64.2866C77.007 65.1021 80.5408 68.398 81.7368 74.1744C81.8727 74.7588 81.7097 75.2549 81.2475 75.6626L61.6554 92.9102C61.4968 93.0519 61.3065 93.1533 61.1002 93.206C60.8938 93.2588 60.6774 93.2614 60.4685 93.2137C60.2596 93.1659 60.0643 93.0692 59.8985 92.9314C59.7327 92.7936 59.6012 92.6186 59.5148 92.4209L58.577 90.1987C58.5166 90.0671 58.4142 89.9594 58.2859 89.8924C58.1576 89.8254 58.0107 89.803 57.8682 89.8287C57.7258 89.8544 57.5959 89.9267 57.4991 90.0343C57.4023 90.1419 57.3439 90.2786 57.3333 90.423C57.1567 94.6635 55.05 97.8031 51.0133 99.8418C50.6328 100.046 50.2522 100.052 49.8717 99.8622C45.4272 97.7284 43.5584 94.2014 44.2652 89.2813C44.4419 88.0037 44.1836 87.9085 43.4905 88.9958C43.0827 89.6346 42.8924 90.3006 42.9196 90.9938C42.9355 91.4398 42.8203 91.8808 42.5883 92.2621C42.3563 92.6434 42.0177 92.9483 41.6142 93.1392C41.2108 93.3301 40.7602 93.3985 40.3183 93.3361C39.8763 93.2736 39.4624 93.083 39.1276 92.7879L19.719 75.9684C19.0938 75.4248 18.8763 74.752 19.0666 73.9501C20.2491 68.9756 23.3139 65.9583 28.2612 64.8982C29.1039 64.7215 29.6611 65.0341 29.933 65.836L30.7892 68.2825C31.0339 69.0028 31.4552 69.594 32.0532 70.0561Z" fill="currentColor"/>
</svg>
