<svg width="72" height="72" viewBox="0 0 72 72" fill="none" xmlns="http://www.w3.org/2000/svg">
<path d="M0 10C0 4.47715 4.47715 0 10 0H62C67.5228 0 72 4.47715 72 10V62C72 67.5228 67.5228 72 62 72H10C4.47715 72 0 67.5228 0 62V10Z" fill="#00AD03"/>
<path d="M17.8998 47.53L9.51978 39.14C9.4708 39.0916 9.43191 39.034 9.40537 38.9705C9.37882 38.907 9.36516 38.8388 9.36516 38.77C9.36516 38.7012 9.37882 38.633 9.40537 38.5695C9.43191 38.506 9.4708 38.4484 9.51978 38.4L14.4298 33.54C14.4788 33.4917 14.5369 33.4536 14.6008 33.4279C14.6647 33.4022 14.733 33.3894 14.8019 33.3904C14.8707 33.3913 14.9387 33.4059 15.0018 33.4333C15.065 33.4607 15.1221 33.5004 15.1698 33.55L20.2798 38.66C20.3327 38.7118 20.3961 38.7517 20.4657 38.777C20.5353 38.8024 20.6095 38.8125 20.6834 38.8068C20.7572 38.8012 20.829 38.7798 20.8939 38.7441C20.9588 38.7084 21.0154 38.6593 21.0598 38.6L43.8398 8.21001C43.8884 8.14451 43.9518 8.09138 44.0247 8.0549C44.0977 8.01842 44.1782 7.99961 44.2598 8.00001H63.4798C63.6177 8.00001 63.75 8.05479 63.8475 8.15231C63.945 8.24983 63.9998 8.38209 63.9998 8.52001V27.74C64.0002 27.8216 63.9814 27.9021 63.9449 27.9751C63.9084 28.048 63.8553 28.1114 63.7898 28.16L33.4098 50.94C33.3505 50.9844 33.3014 51.0409 33.2657 51.1059C33.23 51.1708 33.2086 51.2426 33.2029 51.3164C33.1973 51.3903 33.2074 51.4645 33.2327 51.5341C33.2581 51.6037 33.298 51.6671 33.3498 51.72L38.4098 56.79C38.4588 56.8384 38.4977 56.896 38.5242 56.9595C38.5507 57.023 38.5644 57.0912 38.5644 57.16C38.5644 57.2288 38.5507 57.297 38.5242 57.3605C38.4977 57.424 38.4588 57.4816 38.4098 57.53L33.5098 62.4C33.4614 62.449 33.4038 62.4879 33.3403 62.5144C33.2768 62.541 33.2086 62.5546 33.1398 62.5546C33.0709 62.5546 33.0028 62.541 32.9393 62.5144C32.8758 62.4879 32.8181 62.449 32.7698 62.4L24.5298 54.15C24.4814 54.101 24.4238 54.0621 24.3603 54.0356C24.2968 54.0091 24.2286 53.9954 24.1598 53.9954C24.0909 53.9954 24.0228 54.0091 23.9593 54.0356C23.8958 54.0621 23.8381 54.101 23.7898 54.15L14.3798 63.58C14.3314 63.629 14.2738 63.6679 14.2103 63.6944C14.1468 63.721 14.0786 63.7346 14.0098 63.7346C13.9409 63.7346 13.8728 63.721 13.8093 63.6944C13.7458 63.6679 13.6881 63.629 13.6398 63.58L8.43978 58.32C8.3908 58.2716 8.35191 58.214 8.32537 58.1505C8.29882 58.087 8.28516 58.0188 8.28516 57.95C8.28516 57.8812 8.29882 57.813 8.32537 57.7495C8.35191 57.686 8.3908 57.6284 8.43978 57.58L17.8998 48.27C17.9488 48.2216 17.9877 48.164 18.0142 48.1005C18.0407 48.037 18.0544 47.9688 18.0544 47.9C18.0544 47.8312 18.0407 47.763 18.0142 47.6995C17.9877 47.636 17.9488 47.5784 17.8998 47.53Z" fill="white"/>
</svg>
