<svg width="72" height="72" viewBox="0 0 72 72" fill="none" xmlns="http://www.w3.org/2000/svg">
<g clip-path="url(#clip0_9960_10)">
<path d="M0 10C0 4.47715 4.47715 0 10 0H62C67.5228 0 72 4.47715 72 10V62C72 67.5228 67.5228 72 62 72H10C4.47715 72 0 67.5228 0 62V10Z" fill="#E91916"/>
<path d="M48.05 44.9178C47.46 51.9478 48.16 55.9378 39.51 55.9878C31.8967 56.0278 24.2867 56.0278 16.68 55.9878C10.62 55.9578 8 53.7178 8 47.7378C8.00667 40.2978 8.01 32.8544 8.01 25.4078C8.01 19.4478 9.6 16.0578 15.9 16.0278C23.5533 15.9944 31.2033 15.9911 38.85 16.0178C46.9 16.0478 48.6 19.6778 47.97 27.1978C47.9623 27.2849 47.9781 27.3725 48.0156 27.4514C48.0532 27.5304 48.1112 27.5979 48.1837 27.6468C48.2561 27.6958 48.3403 27.7245 48.4276 27.73C48.5149 27.7354 48.602 27.7174 48.68 27.6778L63.34 20.3478C63.7867 20.1211 64.01 20.2578 64.01 20.7578V51.2378C64.01 51.7311 63.7867 51.8678 63.34 51.6478L48.79 44.4978C48.3367 44.2778 48.09 44.4178 48.05 44.9178Z" fill="white"/>
</g>
<defs>
<clipPath id="clip0_9960_10">
<rect width="72" height="72" fill="white"/>
</clipPath>
</defs>
</svg>
