<svg width="100" height="100" viewBox="0 0 100 100" fill="none" xmlns="http://www.w3.org/2000/svg">
<path d="M28.5619 59.8685C22.5971 61.3703 18.4568 59.3071 16.141 53.6792C15.8042 52.8511 16.0708 52.3809 16.941 52.2687L17.6778 52.1634C17.9585 52.1213 18.0638 51.9599 17.9936 51.6792C15.2849 41.7987 17.4042 33.0549 24.3514 25.448C25.2216 24.4937 25.6567 24.6621 25.6567 25.9533V34.5847C25.6567 35.3426 25.9724 35.5251 26.604 35.1321C26.8707 34.9637 27.0461 34.676 27.1303 34.2689C27.8882 30.3111 28.2882 26.3042 28.3303 22.2481C28.3373 21.9084 28.4115 21.5734 28.5489 21.2627C28.6862 20.9519 28.8838 20.6714 29.1303 20.4376C34.7302 15.1885 38.3091 8.80268 39.867 1.27999C39.9021 1.13018 39.9846 0.995689 40.1022 0.896453C40.2198 0.797217 40.3663 0.738522 40.5199 0.729071C40.6734 0.719619 40.826 0.759915 40.9549 0.843982C41.0838 0.928049 41.1821 1.05141 41.2354 1.19578C44.9125 12.2131 43.5161 22.7323 37.046 32.7532C33.0671 38.9215 38.2459 46.4582 45.509 45.553C45.7248 45.5295 45.9263 45.4309 46.0796 45.2738C46.2328 45.1167 46.3287 44.9105 46.3511 44.6898L47.1721 36.7531C47.2108 36.4007 47.3488 36.0678 47.5693 35.795C47.7898 35.5222 48.0833 35.3211 48.4142 35.2163C50.337 34.5988 51.8457 34.9075 52.9404 36.1426C54.6667 38.1215 53.8878 41.8478 54.0351 44.5214C54.0772 45.2653 54.4773 45.6582 55.2351 45.7003C61.8035 46.0372 66.9613 40.9425 63.9718 34.29C58.9614 23.0481 54.8773 14.8166 59.2561 2.01682C60.1965 -0.734013 60.8842 -0.670856 61.3193 2.20629C62.1614 7.7641 64.6245 12.7816 68.7086 17.2587C74.4769 23.5744 71.2981 32.0374 74.3927 34.69C74.8278 35.0689 75.0664 34.9637 75.1085 34.3742L75.5717 26.4375C75.6418 25.2726 76.0629 25.1252 76.8348 25.9954C83.1224 33.097 85.1925 41.2794 83.0452 50.5424C82.8908 51.216 83.1154 51.7143 83.7189 52.0371C84.0978 52.2336 84.3575 52.5704 84.4978 53.0476C84.6101 53.4406 84.554 53.8686 84.3294 54.3318C81.9014 59.3843 77.9576 61.2931 72.4981 60.058C72.4006 60.0346 72.2984 60.0406 72.2044 60.0754C72.1104 60.1102 72.0289 60.1722 71.9703 60.2534C71.9116 60.3347 71.8783 60.4315 71.8749 60.5317C71.8714 60.6318 71.8978 60.7308 71.9507 60.8159L72.3296 61.4685C72.7366 62.1562 72.5401 62.5281 71.7401 62.5843C66.3367 62.9352 62.3579 60.851 59.8035 56.3318C59.6167 56.0021 59.3398 55.7332 59.0049 55.5564C58.6701 55.3797 58.291 55.3022 57.9118 55.3331C57.5326 55.3639 57.1688 55.5019 56.8627 55.7308C56.5566 55.9598 56.3207 56.2704 56.1825 56.6265C54.9475 59.9387 54.6176 63.4053 55.1931 67.0263C55.3053 67.7 55.0737 68.2263 54.4983 68.6052L44.709 75.0894C44.5515 75.1981 44.3623 75.2513 44.1712 75.2408C43.9802 75.2303 43.798 75.1566 43.6534 75.0312C43.5088 74.9059 43.4099 74.7361 43.3723 74.5484C43.3348 74.3608 43.3606 74.166 43.4458 73.9946C46.3651 67.9035 46.5897 61.7773 44.1195 55.616C44.0156 55.3444 43.8346 55.109 43.5989 54.9387C43.3632 54.7684 43.0829 54.6705 42.7924 54.6571C42.502 54.6437 42.2139 54.7153 41.9635 54.8632C41.7131 55.0111 41.5113 55.2288 41.3828 55.4897C38.9828 60.3177 34.9968 62.7176 29.425 62.6895C29.2865 62.6846 29.1512 62.6445 29.0324 62.5732C28.9136 62.5019 28.8153 62.4019 28.7474 62.2829C28.6794 62.164 28.6441 62.0303 28.6448 61.8948C28.6455 61.7594 28.6822 61.627 28.7514 61.5106L29.2145 60.7527C29.6917 59.9387 29.4742 59.644 28.5619 59.8685Z" fill="currentColor"/>
<path d="M37.888 69.6161C35.9091 66.9636 31.6986 66.7741 30.1197 70.0582C28.3513 73.7845 29.0671 78.5844 33.9091 79.5318C48.4141 82.3107 55.3404 64.6057 69.3822 70.9424C69.7199 71.099 70.0137 71.3344 70.2376 71.6281C70.4616 71.9218 70.6089 72.2647 70.6665 72.6266C71.3401 77.0897 69.9717 80.8089 66.5612 83.7843C66.4647 83.8696 66.3411 83.9181 66.2123 83.9212C66.0835 83.9243 65.9577 83.8819 65.8571 83.8014C65.7565 83.7209 65.6875 83.6075 65.6622 83.4812C65.637 83.3548 65.6572 83.2236 65.7192 83.1107C68.2875 78.0371 66.2244 73.3213 60.3719 74.2898C49.6141 76.0792 37.1933 94.8579 25.9093 84.037C20.7515 79.0897 22.4777 70.8793 27.8882 66.9846C34.1197 62.4584 45.93 68.1846 38.6249 76.1213C38.2383 76.5384 37.7297 76.8225 37.1719 76.933C36.614 77.0434 36.0355 76.9746 35.5192 76.7363C35.0029 76.498 34.5751 76.1024 34.2973 75.6062C34.0194 75.1101 33.9057 74.5387 33.9723 73.974C34.1547 72.4021 35.1372 71.6021 36.9196 71.574C37.1464 71.573 37.3684 71.5089 37.5608 71.3889C37.7531 71.2688 37.9083 71.0976 38.0088 70.8943C38.1093 70.6911 38.1513 70.4638 38.13 70.2381C38.1086 70.0123 38.0249 69.797 37.888 69.6161Z" fill="currentColor"/>
<path d="M41.5931 90.5424L57.9928 79.8478C58.0815 79.7869 58.1835 79.7481 58.2903 79.7347C58.3971 79.7213 58.5055 79.7337 58.6065 79.7708C58.7075 79.8079 58.7982 79.8687 58.8709 79.948C58.9436 80.0273 58.9963 80.1229 59.0244 80.2268L61.3612 88.8161C61.3929 88.9301 61.3941 89.0504 61.3645 89.165C61.3349 89.2796 61.2757 89.3843 61.1928 89.4687L50.8561 99.8054C50.73 99.9301 50.5598 100 50.3825 100C50.2051 100 50.0349 99.9301 49.9088 99.8054L41.5089 91.595C41.4346 91.5258 41.3769 91.4407 41.3401 91.346C41.3034 91.2514 41.2885 91.1496 41.2966 91.0484C41.3047 90.9471 41.3356 90.849 41.3869 90.7614C41.4383 90.6738 41.5087 90.5989 41.5931 90.5424Z" fill="currentColor"/>
</svg>
