<svg width="100" height="100" viewBox="0 0 100 100" fill="none" xmlns="http://www.w3.org/2000/svg">
<path d="M33.0191 44.4659C24.9443 35.6013 17.4413 27.1373 7.38953 20.7518C6.62731 20.2677 6.17475 19.5665 6.03183 18.6483L3.24498 1.89565C2.9909 0.393173 3.58639 -0.216167 5.03142 0.067635L21.562 3.29797C22.3719 3.46491 22.9673 3.93235 23.3484 4.70028C28.5887 15.418 37.8544 23.0306 45.5242 31.6698C45.7567 31.9324 45.8842 32.2781 45.8798 32.6336C45.8753 32.989 45.7392 33.326 45.5004 33.573L34.9246 44.491C34.8003 44.6211 34.6523 44.7237 34.4891 44.7929C34.326 44.8621 34.1509 44.8965 33.9739 44.8942C33.7969 44.8919 33.6214 44.8529 33.4576 44.7794C33.2937 44.7059 33.1447 44.5994 33.0191 44.4659Z" fill="currentColor"/>
<path d="M44.9048 91.5186C33.1381 79.5989 32.9713 72.8127 16.9648 87.1865C16.3296 87.7707 15.9008 88.4886 15.6785 89.34C13.7412 96.7356 8.94562 100.283 1.29169 99.9826C0.513595 99.9492 0.100726 99.5235 0.0530875 98.7055C-0.756768 85.3835 7.86581 86.1347 14.5352 80.7759C17.0442 78.7559 19.2673 76.7025 21.2046 74.6157C22.0608 73.6879 22.5361 72.4443 22.5272 71.155C22.5183 69.8656 22.0259 68.6346 21.157 67.7293L9.12823 55.2337C8.15958 54.232 8.35807 53.7312 9.72371 53.7312H22.8719C23.5067 53.7307 24.1239 53.9412 24.6346 54.3322C27.3738 56.4607 30.8038 56.661 33.3762 53.9566C51.9315 34.4243 69.915 18.6232 76.6082 4.55C76.7487 4.26073 76.9482 4.00904 77.1916 3.81386C77.435 3.61868 77.7161 3.48509 78.0136 3.42314L94.7109 0.117679C96.3306 -0.199512 96.9975 0.493299 96.7117 2.19611L94.0439 18.3979C93.901 19.2994 93.4643 20.0005 92.7339 20.5013C75.2744 32.6965 60.5302 50.9015 45.7385 66.5023C45.1827 67.0866 44.8016 67.7711 44.5951 68.5557C43.817 71.3937 44.2617 73.8311 45.929 75.8678C46.4689 76.5355 46.7389 77.3035 46.7389 78.1716V90.6922C46.7358 90.9178 46.6706 91.1384 46.5514 91.3265C46.4323 91.5146 46.2644 91.6619 46.0688 91.75C45.8732 91.8382 45.6585 91.8632 45.4515 91.8221C45.2445 91.7809 45.0543 91.6754 44.9048 91.5186Z" fill="currentColor"/>
<path d="M85.5168 80.8262C92.4005 86.4605 100.713 85.1834 99.9513 98.906C99.9195 99.5404 99.6019 99.8827 98.9985 99.9327C91.3922 100.517 86.5331 97.0029 84.4211 89.3903C84.1511 88.4388 83.643 87.6458 82.8967 87.0114L74.2264 79.5992C73.0554 78.5976 71.5742 78.0867 70.0694 78.1654C68.5645 78.244 67.1432 78.9066 66.0803 80.0249L55.0758 91.594C54.9292 91.7469 54.7429 91.851 54.5403 91.893C54.3377 91.9351 54.1278 91.9133 53.937 91.8303C53.7462 91.7474 53.5829 91.607 53.4676 91.4269C53.3524 91.2467 53.2904 91.0348 53.2893 90.8177V78.1468C53.2893 77.3788 53.5275 76.6944 54.0039 76.0934C56.4493 73.0049 56.5049 69.8998 54.1706 66.778C53.599 66.0267 53.6545 65.3172 54.3374 64.6495L64.7464 54.5829C65.3974 53.9652 66.0803 53.9234 66.7948 54.4576C69.4626 56.4776 72.1303 56.5361 74.7981 54.6329C75.6054 54.0455 76.561 53.731 77.5373 53.7314H90.3283C91.7574 53.7314 91.9559 54.249 90.9238 55.284L78.7521 67.6544C78.3216 68.0909 77.9776 68.6127 77.7398 69.1901C77.502 69.7675 77.3751 70.3891 77.3662 71.0194C77.3574 71.6497 77.4668 72.2763 77.6883 72.8634C77.9097 73.4504 78.2389 73.9864 78.6568 74.4406C80.6735 76.5942 82.9602 78.7227 85.5168 80.8262Z" fill="currentColor"/>
</svg>
