<svg width="72" height="72" viewBox="0 0 72 72" fill="none" xmlns="http://www.w3.org/2000/svg">
<path d="M0 10C0 4.47715 4.47715 0 10 0H62C67.5228 0 72 4.47715 72 10V62C72 67.5228 67.5228 72 62 72H10C4.47715 72 0 67.5228 0 62V10Z" fill="#E005B9"/>
<path d="M35.71 59.58L8.39999 32.29C8.31114 32.2017 8.25717 32.0843 8.24798 31.9593C8.2388 31.8344 8.27502 31.7104 8.34999 31.61L19.83 16.21C19.8786 16.1445 19.942 16.0914 20.0149 16.0549C20.0879 16.0184 20.1684 15.9996 20.25 16H51.74C51.8216 15.9996 51.9021 16.0184 51.975 16.0549C52.048 16.0914 52.1114 16.1445 52.16 16.21L63.68 31.58C63.755 31.6804 63.7912 31.8044 63.782 31.9293C63.7728 32.0543 63.7188 32.1717 63.63 32.26L36.45 59.58C36.4016 59.629 36.344 59.6679 36.2805 59.6944C36.217 59.721 36.1488 59.7346 36.08 59.7346C36.0112 59.7346 35.943 59.721 35.8795 59.6944C35.816 59.6679 35.7584 59.629 35.71 59.58Z" fill="white"/>
</svg>
